<svg id="Capa_1" enable-background="new 0 0 510.64 510.64" height="512" viewBox="0 0 510.64 510.64" width="512" xmlns="http://www.w3.org/2000/svg"><g><path d="m303.023 112.341v128.021c0 8.24-6.332 15.331-14.564 15.718-8.788.414-16.043-6.589-16.043-15.286v-128.453h-36.171v128.021c0 8.24-6.333 15.331-14.564 15.718-8.788.414-16.043-6.589-16.043-15.286v-128.453h-35.182v159.957c0 27.293 15.407 50.982 37.997 62.857 11.3 5.94 18.161 17.879 18.161 30.644v115.776h57.409v-115.776c0-12.766 6.861-24.705 18.161-30.644 22.59-11.875 37.997-35.563 37.997-62.857v-159.957z" fill="#f9fbfc"/><path d="m505.212 47.405-5.197-10.491c-4.354-8.788-16.32-10.166-22.557-2.598l-7.484 9.08c-10.39-14.765-27.509-20.823-43.252-13.597-112.279 51.532-227.861 51.481-343.536-.15-15.584-6.957-32.409-.962-42.73 13.491l-7.274-8.824c-6.238-7.567-18.204-6.189-22.557 2.598l-5.197 10.491c-3.828 7.726.455 17.014 8.817 19.12l16.622 4.186c-1.529 21.232 8.599 41.908 25.646 49.516 66.762 29.799 133.536 44.694 199.901 44.694 66.462 0 132.513-14.951 197.646-44.844 16.848-7.733 26.794-28.237 25.316-49.266l17.021-4.287c8.361-2.105 12.643-11.393 8.815-19.119z" fill="#eaa895"/><g fill="#f9fbfc"><path d="m474.102 62.083c-1.863 0-3.374 1.51-3.374 3.374s1.51 3.374 3.374 3.374c1.863 0 3.374-1.51 3.374-3.374s-1.51-3.374-3.374-3.374z"/><path d="m462.818 73.368c-1.863 0-3.374 1.51-3.374 3.374 0 1.863 1.51 3.374 3.374 3.374 1.863 0 3.374-1.511 3.374-3.374 0-1.864-1.511-3.374-3.374-3.374z"/><path d="m477.476 87.207c0-1.863-1.511-3.374-3.374-3.374s-3.374 1.51-3.374 3.374c0 1.863 1.51 3.374 3.374 3.374 1.864-.001 3.374-1.511 3.374-3.374z"/><path d="m462.818 95.118c-1.863 0-3.374 1.51-3.374 3.373s1.51 3.374 3.374 3.374c1.863 0 3.374-1.511 3.374-3.374s-1.511-3.373-3.374-3.373z"/><path d="m452.353 83.833c-1.863 0-3.374 1.51-3.374 3.374 0 1.863 1.511 3.374 3.374 3.374s3.374-1.51 3.374-3.374c-.001-1.863-1.511-3.374-3.374-3.374z"/><path d="m441.068 95.118c-1.863 0-3.374 1.51-3.374 3.373s1.51 3.374 3.374 3.374c1.863 0 3.374-1.511 3.374-3.374s-1.511-3.373-3.374-3.373z"/><path d="m452.353 105.583c-1.863 0-3.374 1.51-3.374 3.374 0 1.863 1.511 3.374 3.374 3.374s3.374-1.511 3.374-3.374c-.001-1.863-1.511-3.374-3.374-3.374z"/><path d="m441.068 116.868c-1.863 0-3.374 1.51-3.374 3.374s1.51 3.374 3.374 3.374c1.863 0 3.374-1.51 3.374-3.374s-1.511-3.374-3.374-3.374z"/><circle cx="430.602" cy="87.207" r="3.374"/><path d="m419.318 95.118c-1.863 0-3.374 1.51-3.374 3.373s1.51 3.374 3.374 3.374c1.863 0 3.374-1.511 3.374-3.374s-1.511-3.373-3.374-3.373z"/><circle cx="430.602" cy="108.957" r="3.374"/><path d="m419.318 116.868c-1.863 0-3.374 1.51-3.374 3.374s1.51 3.374 3.374 3.374c1.863 0 3.374-1.51 3.374-3.374s-1.511-3.374-3.374-3.374z"/><path d="m397.568 95.118c-1.863 0-3.374 1.51-3.374 3.373s1.51 3.374 3.374 3.374c1.863 0 3.374-1.511 3.374-3.374-.001-1.863-1.511-3.373-3.374-3.373z"/><path d="m408.852 105.583c-1.863 0-3.374 1.51-3.374 3.374 0 1.863 1.51 3.374 3.374 3.374 1.863 0 3.374-1.511 3.374-3.374s-1.51-3.374-3.374-3.374z"/><path d="m397.568 116.868c-1.863 0-3.374 1.51-3.374 3.374s1.51 3.374 3.374 3.374c1.863 0 3.374-1.51 3.374-3.374-.001-1.864-1.511-3.374-3.374-3.374z"/><path d="m408.852 127.333c-1.863 0-3.374 1.51-3.374 3.374s1.51 3.374 3.374 3.374c1.863 0 3.374-1.51 3.374-3.374 0-1.863-1.51-3.374-3.374-3.374z"/><path d="m387.102 105.583c-1.863 0-3.374 1.51-3.374 3.374 0 1.863 1.511 3.374 3.374 3.374s3.374-1.511 3.374-3.374-1.511-3.374-3.374-3.374z"/><path d="m375.818 116.868c-1.863 0-3.374 1.51-3.374 3.374s1.51 3.374 3.374 3.374c1.863 0 3.374-1.51 3.374-3.374-.001-1.864-1.511-3.374-3.374-3.374z"/><path d="m387.102 127.333c-1.863 0-3.374 1.51-3.374 3.374s1.511 3.374 3.374 3.374 3.374-1.51 3.374-3.374c0-1.863-1.511-3.374-3.374-3.374z"/><circle cx="375.818" cy="141.992" r="3.374"/><path d="m365.352 105.583c-1.863 0-3.374 1.51-3.374 3.374 0 1.863 1.511 3.374 3.374 3.374s3.374-1.511 3.374-3.374-1.511-3.374-3.374-3.374z"/><circle cx="343.638" cy="108.957" r="3.374"/><path d="m354.067 116.868c-1.863 0-3.374 1.51-3.374 3.374s1.51 3.374 3.374 3.374c1.863 0 3.374-1.51 3.374-3.374s-1.51-3.374-3.374-3.374z"/><path d="m365.352 127.333c-1.863 0-3.374 1.51-3.374 3.374s1.511 3.374 3.374 3.374 3.374-1.51 3.374-3.374c0-1.863-1.511-3.374-3.374-3.374z"/><path d="m354.067 138.618c-1.863 0-3.374 1.511-3.374 3.374s1.51 3.374 3.374 3.374c1.863 0 3.374-1.51 3.374-3.374s-1.51-3.374-3.374-3.374z"/><path d="m332.318 116.868c-1.863 0-3.374 1.51-3.374 3.374s1.51 3.374 3.374 3.374c1.863 0 3.374-1.51 3.374-3.374-.001-1.864-1.511-3.374-3.374-3.374z"/><path d="m343.602 127.333c-1.863 0-3.374 1.51-3.374 3.374s1.51 3.374 3.374 3.374c1.863 0 3.374-1.51 3.374-3.374 0-1.863-1.511-3.374-3.374-3.374z"/><path d="m332.318 138.618c-1.863 0-3.374 1.511-3.374 3.374s1.51 3.374 3.374 3.374c1.863 0 3.374-1.51 3.374-3.374-.001-1.864-1.511-3.374-3.374-3.374z"/><path d="m343.602 149.084c-1.863 0-3.374 1.51-3.374 3.374 0 1.863 1.51 3.373 3.374 3.373 1.863 0 3.374-1.51 3.374-3.373 0-1.864-1.511-3.374-3.374-3.374z"/><path d="m310.567 116.868c-1.863 0-3.374 1.51-3.374 3.374s1.511 3.374 3.374 3.374 3.374-1.51 3.374-3.374-1.51-3.374-3.374-3.374z"/><path d="m321.852 127.333c-1.863 0-3.374 1.51-3.374 3.374s1.511 3.374 3.374 3.374 3.374-1.51 3.374-3.374c0-1.863-1.511-3.374-3.374-3.374z"/><circle cx="310.567" cy="141.992" r="3.374"/><path d="m321.852 149.084c-1.863 0-3.374 1.51-3.374 3.374 0 1.863 1.511 3.373 3.374 3.373s3.374-1.51 3.374-3.373c0-1.864-1.511-3.374-3.374-3.374z"/><path d="m288.817 116.868c-1.863 0-3.374 1.51-3.374 3.374s1.51 3.374 3.374 3.374c1.863 0 3.374-1.51 3.374-3.374s-1.51-3.374-3.374-3.374z"/><path d="m300.102 127.333c-1.863 0-3.374 1.51-3.374 3.374s1.511 3.374 3.374 3.374 3.374-1.51 3.374-3.374c-.001-1.863-1.511-3.374-3.374-3.374z"/><path d="m288.817 138.618c-1.863 0-3.374 1.511-3.374 3.374s1.51 3.374 3.374 3.374c1.863 0 3.374-1.51 3.374-3.374s-1.51-3.374-3.374-3.374z"/><path d="m300.102 149.084c-1.863 0-3.374 1.51-3.374 3.374 0 1.863 1.511 3.373 3.374 3.373s3.374-1.51 3.374-3.373c-.001-1.864-1.511-3.374-3.374-3.374z"/><path d="m267.067 116.868c-1.863 0-3.374 1.51-3.374 3.374s1.511 3.374 3.374 3.374 3.374-1.51 3.374-3.374-1.511-3.374-3.374-3.374z"/><path d="m278.352 127.333c-1.863 0-3.374 1.51-3.374 3.374s1.51 3.374 3.374 3.374c1.863 0 3.374-1.51 3.374-3.374-.001-1.863-1.511-3.374-3.374-3.374z"/><path d="m267.067 138.618c-1.863 0-3.374 1.511-3.374 3.374s1.511 3.374 3.374 3.374 3.374-1.51 3.374-3.374-1.511-3.374-3.374-3.374z"/><path d="m278.352 149.084c-1.863 0-3.374 1.51-3.374 3.374 0 1.863 1.51 3.373 3.374 3.373 1.863 0 3.374-1.51 3.374-3.373-.001-1.864-1.511-3.374-3.374-3.374z"/><path d="m245.317 116.868c-1.863 0-3.374 1.51-3.374 3.374s1.51 3.374 3.374 3.374c1.863 0 3.374-1.51 3.374-3.374s-1.511-3.374-3.374-3.374z"/><path d="m253.228 130.707c0 1.864 1.511 3.374 3.374 3.374s3.374-1.51 3.374-3.374c0-1.863-1.511-3.374-3.374-3.374-1.864 0-3.374 1.511-3.374 3.374z"/><path d="m245.317 138.618c-1.863 0-3.374 1.511-3.374 3.374s1.51 3.374 3.374 3.374c1.863 0 3.374-1.51 3.374-3.374s-1.511-3.374-3.374-3.374z"/><path d="m259.975 152.457c0-1.864-1.511-3.374-3.374-3.374s-3.374 1.51-3.374 3.374c0 1.863 1.511 3.373 3.374 3.373 1.864.001 3.374-1.51 3.374-3.373z"/><path d="m223.567 116.868c-1.863 0-3.374 1.51-3.374 3.374s1.51 3.374 3.374 3.374c1.863 0 3.374-1.51 3.374-3.374s-1.511-3.374-3.374-3.374z"/><path d="m234.852 127.333c-1.863 0-3.374 1.51-3.374 3.374s1.51 3.374 3.374 3.374c1.863 0 3.374-1.51 3.374-3.374-.001-1.863-1.511-3.374-3.374-3.374z"/><path d="m223.567 138.618c-1.863 0-3.374 1.511-3.374 3.374s1.51 3.374 3.374 3.374c1.863 0 3.374-1.51 3.374-3.374s-1.511-3.374-3.374-3.374z"/><path d="m234.852 149.084c-1.863 0-3.374 1.51-3.374 3.374 0 1.863 1.51 3.373 3.374 3.373 1.863 0 3.374-1.51 3.374-3.373-.001-1.864-1.511-3.374-3.374-3.374z"/><path d="m201.817 116.868c-1.863 0-3.374 1.51-3.374 3.374s1.51 3.374 3.374 3.374 3.374-1.51 3.374-3.374c-.001-1.864-1.511-3.374-3.374-3.374z"/><path d="m213.101 127.333c-1.864 0-3.374 1.51-3.374 3.374s1.51 3.374 3.374 3.374c1.863 0 3.374-1.51 3.374-3.374 0-1.863-1.51-3.374-3.374-3.374z"/><circle cx="201.817" cy="141.992" r="3.374"/><path d="m213.101 149.084c-1.864 0-3.374 1.51-3.374 3.374 0 1.863 1.51 3.373 3.374 3.373 1.863 0 3.374-1.51 3.374-3.373 0-1.864-1.51-3.374-3.374-3.374z"/><path d="m180.067 116.868c-1.863 0-3.374 1.51-3.374 3.374s1.51 3.374 3.374 3.374c1.863 0 3.374-1.51 3.374-3.374-.001-1.864-1.511-3.374-3.374-3.374z"/><path d="m191.351 127.333c-1.863 0-3.374 1.51-3.374 3.374s1.511 3.374 3.374 3.374 3.374-1.51 3.374-3.374c0-1.863-1.511-3.374-3.374-3.374z"/><path d="m180.067 138.618c-1.863 0-3.374 1.511-3.374 3.374s1.51 3.374 3.374 3.374c1.863 0 3.374-1.51 3.374-3.374-.001-1.864-1.511-3.374-3.374-3.374z"/><path d="m191.351 149.084c-1.863 0-3.374 1.51-3.374 3.374 0 1.863 1.511 3.373 3.374 3.373s3.374-1.51 3.374-3.373c0-1.864-1.511-3.374-3.374-3.374z"/><path d="m158.317 116.868c-1.863 0-3.374 1.51-3.374 3.374s1.51 3.374 3.374 3.374c1.863 0 3.374-1.51 3.374-3.374-.001-1.864-1.511-3.374-3.374-3.374z"/><path d="m169.601 127.333c-1.863 0-3.374 1.51-3.374 3.374s1.51 3.374 3.374 3.374c1.863 0 3.374-1.51 3.374-3.374 0-1.863-1.511-3.374-3.374-3.374z"/><path d="m158.317 138.618c-1.863 0-3.374 1.511-3.374 3.374s1.51 3.374 3.374 3.374c1.863 0 3.374-1.51 3.374-3.374-.001-1.864-1.511-3.374-3.374-3.374z"/><path d="m169.601 149.084c-1.863 0-3.374 1.51-3.374 3.374 0 1.863 1.51 3.373 3.374 3.373 1.863 0 3.374-1.51 3.374-3.373 0-1.864-1.511-3.374-3.374-3.374z"/><circle cx="147.851" cy="108.957" r="3.374"/><path d="m169.666 105.583c-1.863 0-3.374 1.51-3.374 3.374 0 1.863 1.51 3.374 3.374 3.374 1.863 0 3.374-1.511 3.374-3.374s-1.511-3.374-3.374-3.374z"/><path d="m136.566 116.868c-1.863 0-3.374 1.51-3.374 3.374s1.51 3.374 3.374 3.374c1.863 0 3.374-1.51 3.374-3.374s-1.51-3.374-3.374-3.374z"/><path d="m147.851 127.333c-1.863 0-3.374 1.51-3.374 3.374s1.51 3.374 3.374 3.374c1.863 0 3.374-1.51 3.374-3.374 0-1.863-1.511-3.374-3.374-3.374z"/><circle cx="136.566" cy="141.992" r="3.374"/><path d="m114.817 95.118c-1.863 0-3.374 1.51-3.374 3.373s1.51 3.374 3.374 3.374c1.863 0 3.374-1.511 3.374-3.374-.001-1.863-1.511-3.373-3.374-3.373z"/><path d="m126.101 105.583c-1.863 0-3.374 1.51-3.374 3.374 0 1.863 1.51 3.374 3.374 3.374 1.863 0 3.374-1.511 3.374-3.374s-1.511-3.374-3.374-3.374z"/><path d="m114.817 116.868c-1.863 0-3.374 1.51-3.374 3.374s1.51 3.374 3.374 3.374c1.863 0 3.374-1.51 3.374-3.374-.001-1.864-1.511-3.374-3.374-3.374z"/><path d="m126.101 127.333c-1.863 0-3.374 1.51-3.374 3.374s1.51 3.374 3.374 3.374c1.863 0 3.374-1.51 3.374-3.374 0-1.863-1.511-3.374-3.374-3.374z"/><path d="m93.066 95.118c-1.863 0-3.374 1.51-3.374 3.373s1.51 3.374 3.374 3.374c1.863 0 3.374-1.511 3.374-3.374s-1.51-3.373-3.374-3.373z"/><path d="m104.351 105.583c-1.863 0-3.374 1.51-3.374 3.374 0 1.863 1.51 3.374 3.374 3.374 1.863 0 3.374-1.511 3.374-3.374s-1.511-3.374-3.374-3.374z"/><path d="m93.066 116.868c-1.863 0-3.374 1.51-3.374 3.374s1.51 3.374 3.374 3.374c1.863 0 3.374-1.51 3.374-3.374s-1.51-3.374-3.374-3.374z"/><path d="m104.351 127.333c-1.863 0-3.374 1.51-3.374 3.374s1.51 3.374 3.374 3.374c1.863 0 3.374-1.51 3.374-3.374 0-1.863-1.511-3.374-3.374-3.374z"/><circle cx="82.601" cy="87.207" r="3.374"/><path d="m71.316 95.118c-1.863 0-3.373 1.51-3.373 3.373s1.51 3.374 3.373 3.374 3.374-1.511 3.374-3.374-1.511-3.373-3.374-3.373z"/><circle cx="82.601" cy="108.957" r="3.374"/><path d="m71.316 116.868c-1.863 0-3.373 1.51-3.373 3.374s1.51 3.374 3.373 3.374 3.374-1.51 3.374-3.374-1.511-3.374-3.374-3.374z"/><path d="m49.566 73.368c-1.863 0-3.374 1.51-3.374 3.374 0 1.863 1.51 3.374 3.374 3.374 1.863 0 3.374-1.511 3.374-3.374 0-1.864-1.511-3.374-3.374-3.374z"/><path d="m57.477 87.207c0 1.863 1.51 3.374 3.374 3.374s3.374-1.51 3.374-3.374c0-1.863-1.511-3.374-3.374-3.374s-3.374 1.511-3.374 3.374z"/><path d="m52.94 98.491c0-1.863-1.511-3.373-3.374-3.373s-3.374 1.51-3.374 3.373 1.51 3.374 3.374 3.374c1.863 0 3.374-1.511 3.374-3.374z"/><path d="m60.851 112.33c1.863 0 3.374-1.511 3.374-3.374s-1.511-3.374-3.374-3.374-3.374 1.51-3.374 3.374 1.51 3.374 3.374 3.374z"/><path d="m35.727 65.456c0 1.864 1.511 3.374 3.374 3.374s3.374-1.51 3.374-3.374c0-1.863-1.51-3.374-3.374-3.374-1.864.001-3.374 1.511-3.374 3.374z"/><path d="m39.101 90.58c1.863 0 3.374-1.51 3.374-3.374 0-1.863-1.51-3.374-3.374-3.374-1.863 0-3.374 1.51-3.374 3.374s1.51 3.374 3.374 3.374z"/></g><path d="m508.809 45.624-5.198-10.491c-2.651-5.352-7.776-8.955-13.709-9.638-5.92-.681-11.741 1.659-15.541 6.268l-4.327 5.25c-4.15-4.745-9.078-8.511-14.566-10.983-9.813-4.421-20.617-4.377-30.42.122-111.182 51.029-225.651 50.971-340.226-.167-9.819-4.384-20.602-4.318-30.367.188-5.274 2.434-10.023 6.057-14.047 10.598l-4.128-5.008c-3.799-4.609-9.604-6.953-15.542-6.268-5.933.683-11.059 4.286-13.709 9.638l-5.197 10.491c-2.366 4.776-2.444 10.29-.212 15.131 2.232 4.839 6.476 8.362 11.644 9.663l13.476 3.394c-.338 21.634 10.536 42.226 28.136 50.081 37.037 16.532 74.332 28.546 111.566 35.991v112.414c0 27.946 15.382 53.393 40.144 66.41 9.878 5.192 16.014 15.573 16.014 27.091v118.083c0 2.216 1.797 4.013 4.013 4.013s4.013-1.797 4.013-4.013v-118.083c0-14.509-7.781-27.613-20.306-34.197-22.115-11.624-35.852-34.348-35.852-59.304v-110.871c9.058 1.652 18.111 3.024 27.155 4.132v75.236c0 5.332 2.125 10.297 5.985 13.978 3.857 3.68 8.941 5.581 14.26 5.316 10.312-.484 18.39-9.15 18.39-19.726v-71.733c5.39.196 10.776.306 16.154.306 3.996 0 7.993-.058 11.99-.167v72.025c0 5.332 2.125 10.297 5.985 13.978 3.858 3.68 8.946 5.581 14.26 5.316 10.312-.484 18.389-9.15 18.389-19.726v-74.326c9.719-1.112 19.432-2.548 29.132-4.296v110.558c0 24.956-13.737 47.68-35.851 59.304-12.525 6.585-20.306 19.688-20.306 34.197v118.083c0 2.216 1.797 4.013 4.013 4.013s4.013-1.797 4.013-4.013v-118.083c0-11.518 6.137-21.899 16.014-27.091 24.762-13.016 40.143-38.463 40.143-66.41v-112.07c37.494-7.442 74.783-19.634 111.536-36.502 17.383-7.977 28.068-28.394 27.769-49.814l13.875-3.495c5.168-1.301 9.411-4.823 11.643-9.662 2.234-4.84 2.158-10.355-.208-15.131zm-493.585 17.01c-2.802-.705-5.104-2.616-6.315-5.241-1.21-2.625-1.168-5.615.115-8.206l5.197-10.491c1.46-2.945 4.169-4.85 7.436-5.226.384-.044.766-.067 1.144-.067 2.832 0 5.44 1.229 7.284 3.466l5.385 6.531c-2.632 4.203-4.76 8.9-6.257 13.984-.809 2.748-1.404 5.528-1.815 8.315zm217.009 177.728c0 6.178-4.818 11.43-10.74 11.709-3.113.129-6.087-.956-8.341-3.106-2.257-2.153-3.499-5.054-3.499-8.171v-74.326c7.535.789 15.063 1.394 22.58 1.803zm66.777 0c0 6.178-4.817 11.43-10.739 11.709-3.119.129-6.088-.956-8.341-3.106-2.257-2.153-3.499-5.054-3.499-8.171v-72.319c7.528-.34 15.055-.874 22.579-1.598zm153.374-123.931c-64.305 29.514-130.239 44.479-195.971 44.479-65.632 0-132.339-14.92-198.265-44.345-18.516-8.265-28.043-33.796-21.236-56.912 3.584-12.169 11.203-21.715 20.906-26.19 3.87-1.786 7.946-2.68 12.024-2.68 3.962 0 7.928.844 11.709 2.532 116.774 52.122 233.472 52.167 346.846.132 7.664-3.52 16.109-3.554 23.775-.099 9.708 4.373 17.379 13.824 21.044 25.927 6.976 23.042-2.369 48.683-20.832 57.156zm49.346-59.038c-1.21 2.625-3.512 4.535-6.314 5.24l-12.562 3.164c-.433-2.968-1.073-5.928-1.957-8.85-1.456-4.808-3.478-9.259-5.955-13.27l5.613-6.81c1.844-2.238 4.452-3.466 7.283-3.466.378 0 .76.022 1.145.067 3.266.376 5.975 2.281 7.435 5.226l5.198 10.491c1.283 2.592 1.325 5.583.114 8.208z" fill="#31373d"/></g></svg>