<svg id="Capa_1" enable-background="new 0 0 511.56 511.56" height="512" viewBox="0 0 511.56 511.56" width="512" xmlns="http://www.w3.org/2000/svg"><g><path d="m129.967 147.323h251.626v308.146h-251.626z" fill="#eaa895"/><g fill="#f9fbfc"><path d="m377.404 149.072c-1.688 0-3.057 1.369-3.057 3.057 0 1.689 1.369 3.058 3.057 3.058 1.689 0 3.058-1.369 3.058-3.058-.001-1.688-1.37-3.057-3.058-3.057z"/><path d="m367.177 159.299c-1.689 0-3.058 1.369-3.058 3.057 0 1.689 1.369 3.058 3.058 3.058s3.057-1.369 3.057-3.058c0-1.688-1.368-3.057-3.057-3.057z"/><path d="m377.404 168.783c-1.688 0-3.057 1.369-3.057 3.057s1.369 3.057 3.057 3.057c1.689 0 3.058-1.369 3.058-3.057s-1.37-3.057-3.058-3.057z"/><path d="m367.177 179.01c-1.689 0-3.058 1.369-3.058 3.057 0 1.689 1.369 3.058 3.058 3.058s3.057-1.369 3.057-3.058c0-1.688-1.368-3.057-3.057-3.057z"/><path d="m377.404 287.05c-1.688 0-3.057 1.369-3.057 3.057s1.369 3.057 3.057 3.057c1.689 0 3.058-1.369 3.058-3.057s-1.37-3.057-3.058-3.057z"/><path d="m367.177 297.277c-1.689 0-3.058 1.369-3.058 3.057s1.369 3.058 3.058 3.058 3.057-1.369 3.057-3.058-1.368-3.057-3.057-3.057z"/><path d="m377.404 306.761c-1.688 0-3.057 1.369-3.057 3.057s1.369 3.057 3.057 3.057c1.689 0 3.058-1.369 3.058-3.057s-1.37-3.057-3.058-3.057z"/><path d="m367.177 316.988c-1.689 0-3.058 1.369-3.058 3.057s1.369 3.057 3.058 3.057 3.057-1.369 3.057-3.057-1.368-3.057-3.057-3.057z"/><path d="m377.404 326.472c-1.688 0-3.057 1.369-3.057 3.057 0 1.689 1.369 3.058 3.057 3.058 1.689 0 3.058-1.369 3.058-3.058-.001-1.688-1.37-3.057-3.058-3.057z"/><path d="m367.177 336.699c-1.689 0-3.058 1.369-3.058 3.057s1.369 3.058 3.058 3.058 3.057-1.369 3.057-3.058-1.368-3.057-3.057-3.057z"/><path d="m377.404 346.184c-1.688 0-3.057 1.368-3.057 3.057s1.369 3.057 3.057 3.057c1.689 0 3.058-1.368 3.058-3.057-.001-1.689-1.37-3.057-3.058-3.057z"/><path d="m367.177 356.41c-1.689 0-3.058 1.369-3.058 3.057 0 1.689 1.369 3.057 3.058 3.057s3.057-1.369 3.057-3.057-1.368-3.057-3.057-3.057z"/><path d="m377.404 365.894c-1.688 0-3.057 1.369-3.057 3.057s1.369 3.057 3.057 3.057c1.689 0 3.058-1.369 3.058-3.057s-1.37-3.057-3.058-3.057z"/><path d="m367.177 376.121c-1.689 0-3.058 1.369-3.058 3.057s1.369 3.057 3.058 3.057 3.057-1.369 3.057-3.057-1.368-3.057-3.057-3.057z"/><path d="m377.404 385.605c-1.688 0-3.057 1.369-3.057 3.058s1.369 3.057 3.057 3.057c1.689 0 3.058-1.369 3.058-3.057-.001-1.689-1.37-3.058-3.058-3.058z"/><path d="m367.177 395.832c-1.689 0-3.058 1.369-3.058 3.057s1.369 3.057 3.058 3.057 3.057-1.369 3.057-3.057-1.368-3.057-3.057-3.057z"/><path d="m377.404 405.317c-1.688 0-3.057 1.369-3.057 3.057 0 1.689 1.369 3.057 3.057 3.057 1.689 0 3.058-1.369 3.058-3.057-.001-1.688-1.37-3.057-3.058-3.057z"/><path d="m367.177 415.543c-1.689 0-3.058 1.369-3.058 3.057s1.369 3.057 3.058 3.057 3.057-1.369 3.057-3.057-1.368-3.057-3.057-3.057z"/><path d="m377.404 425.028c-1.688 0-3.057 1.369-3.057 3.057 0 1.689 1.369 3.058 3.057 3.058 1.689 0 3.058-1.369 3.058-3.058-.001-1.688-1.37-3.057-3.058-3.057z"/><path d="m367.177 435.255c-1.689 0-3.058 1.369-3.058 3.057s1.369 3.057 3.058 3.057 3.057-1.369 3.057-3.057c0-1.689-1.368-3.057-3.057-3.057z"/><path d="m377.404 444.739c-1.688 0-3.057 1.369-3.057 3.057 0 1.689 1.369 3.057 3.057 3.057 1.689 0 3.058-1.369 3.058-3.057-.001-1.688-1.37-3.057-3.058-3.057z"/><path d="m357.693 155.187c1.689 0 3.057-1.369 3.057-3.058 0-1.688-1.369-3.057-3.057-3.057-1.689 0-3.057 1.369-3.057 3.057-.001 1.689 1.368 3.058 3.057 3.058z"/><path d="m347.466 165.414c1.689 0 3.057-1.369 3.057-3.058 0-1.688-1.369-3.057-3.057-3.057s-3.057 1.369-3.057 3.057c0 1.689 1.368 3.058 3.057 3.058z"/><path d="m357.693 174.898c1.689 0 3.057-1.369 3.057-3.057s-1.369-3.057-3.057-3.057c-1.689 0-3.057 1.369-3.057 3.057s1.368 3.057 3.057 3.057z"/><path d="m347.466 185.125c1.689 0 3.057-1.369 3.057-3.058s-1.369-3.057-3.057-3.057-3.057 1.369-3.057 3.057c0 1.689 1.368 3.058 3.057 3.058z"/><path d="m357.693 194.61c1.689 0 3.057-1.369 3.057-3.058s-1.369-3.057-3.057-3.057c-1.689 0-3.057 1.369-3.057 3.057-.001 1.689 1.368 3.058 3.057 3.058z"/><path d="m347.466 204.836c1.689 0 3.057-1.369 3.057-3.058 0-1.688-1.369-3.057-3.057-3.057s-3.057 1.369-3.057 3.057c0 1.689 1.368 3.058 3.057 3.058z"/><path d="m357.693 214.32c1.689 0 3.057-1.368 3.057-3.057s-1.369-3.057-3.057-3.057c-1.689 0-3.057 1.368-3.057 3.057-.001 1.689 1.368 3.057 3.057 3.057z"/><path d="m347.466 224.547c1.689 0 3.057-1.369 3.057-3.057 0-1.689-1.369-3.057-3.057-3.057s-3.057 1.369-3.057 3.057 1.368 3.057 3.057 3.057z"/><path d="m357.693 332.587c1.689 0 3.057-1.369 3.057-3.058s-1.369-3.057-3.057-3.057c-1.689 0-3.057 1.369-3.057 3.057-.001 1.689 1.368 3.058 3.057 3.058z"/><path d="m347.466 342.814c1.689 0 3.057-1.369 3.057-3.058s-1.369-3.057-3.057-3.057-3.057 1.369-3.057 3.057 1.368 3.058 3.057 3.058z"/><path d="m357.693 352.298c1.689 0 3.057-1.368 3.057-3.057s-1.369-3.057-3.057-3.057c-1.689 0-3.057 1.368-3.057 3.057-.001 1.689 1.368 3.057 3.057 3.057z"/><path d="m347.466 362.525c1.689 0 3.057-1.369 3.057-3.057 0-1.689-1.369-3.057-3.057-3.057s-3.057 1.369-3.057 3.057 1.368 3.057 3.057 3.057z"/><path d="m357.693 372.009c1.689 0 3.057-1.369 3.057-3.057s-1.369-3.057-3.057-3.057c-1.689 0-3.057 1.369-3.057 3.057s1.368 3.057 3.057 3.057z"/><path d="m347.466 382.236c1.689 0 3.057-1.369 3.057-3.057s-1.369-3.057-3.057-3.057-3.057 1.369-3.057 3.057 1.368 3.057 3.057 3.057z"/><path d="m357.693 391.72c1.689 0 3.057-1.369 3.057-3.057 0-1.689-1.369-3.058-3.057-3.058-1.689 0-3.057 1.369-3.057 3.058-.001 1.689 1.368 3.057 3.057 3.057z"/><path d="m347.466 401.947c1.689 0 3.057-1.369 3.057-3.057s-1.369-3.057-3.057-3.057-3.057 1.369-3.057 3.057 1.368 3.057 3.057 3.057z"/><path d="m357.693 411.432c1.689 0 3.057-1.369 3.057-3.057 0-1.689-1.369-3.057-3.057-3.057-1.689 0-3.057 1.369-3.057 3.057-.001 1.688 1.368 3.057 3.057 3.057z"/><path d="m347.466 421.658c1.689 0 3.057-1.369 3.057-3.057s-1.369-3.057-3.057-3.057-3.057 1.369-3.057 3.057 1.368 3.057 3.057 3.057z"/><path d="m357.693 431.143c1.689 0 3.057-1.369 3.057-3.058 0-1.688-1.369-3.057-3.057-3.057-1.689 0-3.057 1.369-3.057 3.057-.001 1.689 1.368 3.058 3.057 3.058z"/><path d="m347.466 441.37c1.689 0 3.057-1.369 3.057-3.057 0-1.689-1.369-3.057-3.057-3.057s-3.057 1.369-3.057 3.057c0 1.687 1.368 3.057 3.057 3.057z"/><path d="m357.693 450.854c1.689 0 3.057-1.369 3.057-3.057 0-1.689-1.369-3.057-3.057-3.057-1.689 0-3.057 1.369-3.057 3.057-.001 1.688 1.368 3.057 3.057 3.057z"/><path d="m337.981 149.072c-1.689 0-3.057 1.369-3.057 3.057 0 1.689 1.369 3.058 3.057 3.058 1.689 0 3.057-1.369 3.057-3.058.001-1.688-1.368-3.057-3.057-3.057z"/><path d="m327.755 159.299c-1.689 0-3.058 1.369-3.058 3.057 0 1.689 1.369 3.058 3.058 3.058s3.057-1.369 3.057-3.058c0-1.688-1.369-3.057-3.057-3.057z"/><path d="m337.981 168.783c-1.689 0-3.057 1.369-3.057 3.057s1.369 3.057 3.057 3.057c1.689 0 3.057-1.369 3.057-3.057s-1.368-3.057-3.057-3.057z"/><path d="m327.755 179.01c-1.689 0-3.058 1.369-3.058 3.057 0 1.689 1.369 3.058 3.058 3.058s3.057-1.369 3.057-3.058c0-1.688-1.369-3.057-3.057-3.057z"/><path d="m337.981 188.495c-1.689 0-3.057 1.369-3.057 3.057 0 1.689 1.369 3.058 3.057 3.058 1.689 0 3.057-1.369 3.057-3.058.001-1.689-1.368-3.057-3.057-3.057z"/><path d="m327.755 198.721c-1.689 0-3.058 1.369-3.058 3.057 0 1.689 1.369 3.058 3.058 3.058s3.057-1.369 3.057-3.058c0-1.688-1.369-3.057-3.057-3.057z"/><path d="m337.981 208.206c-1.689 0-3.057 1.368-3.057 3.057s1.369 3.057 3.057 3.057c1.689 0 3.057-1.368 3.057-3.057.001-1.689-1.368-3.057-3.057-3.057z"/><path d="m327.755 218.432c-1.689 0-3.058 1.369-3.058 3.057 0 1.689 1.369 3.057 3.058 3.057s3.057-1.369 3.057-3.057-1.369-3.057-3.057-3.057z"/><path d="m337.981 227.917c-1.689 0-3.057 1.369-3.057 3.057s1.369 3.057 3.057 3.057c1.689 0 3.057-1.369 3.057-3.057s-1.368-3.057-3.057-3.057z"/><path d="m327.755 238.143c-1.689 0-3.058 1.369-3.058 3.058 0 1.688 1.369 3.057 3.058 3.057s3.057-1.369 3.057-3.057c0-1.689-1.369-3.058-3.057-3.058z"/><path d="m327.755 336.699c-1.689 0-3.058 1.369-3.058 3.057s1.369 3.058 3.058 3.058 3.057-1.369 3.057-3.058-1.369-3.057-3.057-3.057z"/><path d="m337.981 346.184c-1.689 0-3.057 1.368-3.057 3.057s1.369 3.057 3.057 3.057c1.689 0 3.057-1.368 3.057-3.057.001-1.689-1.368-3.057-3.057-3.057z"/><path d="m327.755 356.41c-1.689 0-3.058 1.369-3.058 3.057 0 1.689 1.369 3.057 3.058 3.057s3.057-1.369 3.057-3.057-1.369-3.057-3.057-3.057z"/><path d="m337.981 365.894c-1.689 0-3.057 1.369-3.057 3.057s1.369 3.057 3.057 3.057c1.689 0 3.057-1.369 3.057-3.057s-1.368-3.057-3.057-3.057z"/><path d="m327.755 376.121c-1.689 0-3.058 1.369-3.058 3.057s1.369 3.057 3.058 3.057 3.057-1.369 3.057-3.057-1.369-3.057-3.057-3.057z"/><path d="m337.981 385.605c-1.689 0-3.057 1.369-3.057 3.058s1.369 3.057 3.057 3.057c1.689 0 3.057-1.369 3.057-3.057.001-1.689-1.368-3.058-3.057-3.058z"/><path d="m327.755 395.832c-1.689 0-3.058 1.369-3.058 3.057s1.369 3.057 3.058 3.057 3.057-1.369 3.057-3.057-1.369-3.057-3.057-3.057z"/><circle cx="337.981" cy="408.374" r="3.057"/><path d="m327.755 415.543c-1.689 0-3.058 1.369-3.058 3.057s1.369 3.057 3.058 3.057 3.057-1.369 3.057-3.057-1.369-3.057-3.057-3.057z"/><path d="m337.981 425.028c-1.689 0-3.057 1.369-3.057 3.057 0 1.689 1.369 3.058 3.057 3.058 1.689 0 3.057-1.369 3.057-3.058.001-1.688-1.368-3.057-3.057-3.057z"/><path d="m327.755 435.255c-1.689 0-3.058 1.369-3.058 3.057s1.369 3.057 3.058 3.057 3.057-1.369 3.057-3.057c0-1.689-1.369-3.057-3.057-3.057z"/><circle cx="337.981" cy="447.796" r="3.057"/></g><path d="m381.492 246.559s2.38 52.348-35.691 81.694c-37.78 29.122-100.73 17.449-142.766 48.382-42.548 31.309-72.176 72.969-72.176 72.969v-82.487s9.799-41.66 52.348-72.969c42.037-30.933 104.987-19.26 142.766-48.382 38.071-29.346 55.52-81.694 55.52-81.694" fill="#f9fbfc"/><g fill="#eaa895"><path d="m380.461 171.841c0-.902-.398-1.705-1.02-2.265-.598 1.512-1.325 3.293-2.189 5.307.051.002.1.015.152.015 1.688 0 3.057-1.369 3.057-3.057z"/><path d="m377.404 188.495c-1.688 0-3.057 1.369-3.057 3.057 0 1.689 1.369 3.058 3.057 3.058 1.689 0 3.058-1.369 3.058-3.058-.001-1.689-1.37-3.057-3.058-3.057z"/><path d="m367.177 198.721c-1.689 0-3.058 1.369-3.058 3.057 0 1.689 1.369 3.058 3.058 3.058s3.057-1.369 3.057-3.058c0-1.688-1.368-3.057-3.057-3.057z"/><path d="m377.404 208.206c-1.688 0-3.057 1.368-3.057 3.057s1.369 3.057 3.057 3.057c1.689 0 3.058-1.368 3.058-3.057-.001-1.689-1.37-3.057-3.058-3.057z"/><path d="m367.177 218.432c-1.689 0-3.058 1.369-3.058 3.057 0 1.689 1.369 3.057 3.058 3.057s3.057-1.369 3.057-3.057-1.368-3.057-3.057-3.057z"/><path d="m377.404 227.917c-1.688 0-3.057 1.369-3.057 3.057s1.369 3.057 3.057 3.057c1.689 0 3.058-1.369 3.058-3.057s-1.37-3.057-3.058-3.057z"/><path d="m367.177 238.143c-1.689 0-3.058 1.369-3.058 3.058 0 1.688 1.369 3.057 3.058 3.057s3.057-1.369 3.057-3.057c0-1.689-1.368-3.058-3.057-3.058z"/><path d="m377.404 247.628c-1.688 0-3.057 1.369-3.057 3.057s1.369 3.057 3.057 3.057c1.689 0 3.058-1.369 3.058-3.057s-1.37-3.057-3.058-3.057z"/><path d="m367.177 257.854c-1.689 0-3.058 1.369-3.058 3.057s1.369 3.057 3.058 3.057 3.057-1.369 3.057-3.057-1.368-3.057-3.057-3.057z"/><path d="m377.404 267.339c-1.688 0-3.057 1.369-3.057 3.057 0 1.689 1.369 3.058 3.057 3.058.456 0 .885-.107 1.274-.286.365-1.664.683-3.28.961-4.845-.558-.602-1.349-.984-2.235-.984z"/><path d="m367.177 277.566c-1.689 0-3.058 1.369-3.058 3.057s1.369 3.057 3.058 3.057 3.057-1.369 3.057-3.057-1.368-3.057-3.057-3.057z"/><path d="m367.177 297.277c-1.689 0-3.058 1.369-3.058 3.057s1.369 3.058 3.058 3.058c.035 0 .067-.009.101-.01.884-1.545 1.712-3.098 2.491-4.653-.539-.869-1.494-1.452-2.592-1.452z"/><path d="m360.75 211.263c0-1.127-.617-2.101-1.524-2.631-1.093 1.671-2.228 3.352-3.404 5.033.518.405 1.162.656 1.871.656 1.688-.001 3.057-1.369 3.057-3.058z"/><path d="m350.523 221.49c0-.192-.022-.379-.057-.562-.94 1.209-1.902 2.412-2.887 3.608 1.636-.062 2.944-1.397 2.944-3.046z"/><path d="m357.693 227.917c-1.689 0-3.057 1.369-3.057 3.057s1.369 3.057 3.057 3.057c1.689 0 3.057-1.369 3.057-3.057s-1.369-3.057-3.057-3.057z"/><path d="m347.466 238.143c-1.689 0-3.057 1.369-3.057 3.058 0 1.688 1.369 3.057 3.057 3.057s3.057-1.369 3.057-3.057c0-1.689-1.369-3.058-3.057-3.058z"/><path d="m357.693 247.628c-1.689 0-3.057 1.369-3.057 3.057s1.369 3.057 3.057 3.057c1.689 0 3.057-1.369 3.057-3.057s-1.369-3.057-3.057-3.057z"/><path d="m347.466 257.854c-1.689 0-3.057 1.369-3.057 3.057s1.369 3.057 3.057 3.057 3.057-1.369 3.057-3.057-1.369-3.057-3.057-3.057z"/><path d="m357.693 267.339c-1.689 0-3.057 1.369-3.057 3.057 0 1.689 1.369 3.058 3.057 3.058 1.689 0 3.057-1.369 3.057-3.058 0-1.688-1.369-3.057-3.057-3.057z"/><path d="m347.466 277.566c-1.689 0-3.057 1.369-3.057 3.057s1.369 3.057 3.057 3.057 3.057-1.369 3.057-3.057-1.369-3.057-3.057-3.057z"/><path d="m357.693 287.05c-1.689 0-3.057 1.369-3.057 3.057s1.369 3.057 3.057 3.057c1.689 0 3.057-1.369 3.057-3.057s-1.369-3.057-3.057-3.057z"/><path d="m347.466 297.277c-1.689 0-3.057 1.369-3.057 3.057s1.369 3.058 3.057 3.058 3.057-1.369 3.057-3.058-1.369-3.057-3.057-3.057z"/><path d="m357.693 312.876c1.689 0 3.057-1.369 3.057-3.057s-1.369-3.057-3.057-3.057c-1.689 0-3.057 1.369-3.057 3.057s1.368 3.057 3.057 3.057z"/><path d="m347.466 316.988c-1.689 0-3.057 1.369-3.057 3.057s1.369 3.057 3.057 3.057 3.057-1.369 3.057-3.057-1.369-3.057-3.057-3.057z"/><path d="m340.691 232.363c-.398.421-.799.84-1.202 1.257.514-.294.93-.729 1.202-1.257z"/><path d="m330.728 241.887c-.93.799-1.872 1.585-2.829 2.357 1.386-.066 2.528-1.046 2.829-2.357z"/><path d="m337.981 247.628c-1.689 0-3.057 1.369-3.057 3.057s1.369 3.057 3.057 3.057c1.689 0 3.057-1.369 3.057-3.057s-1.368-3.057-3.057-3.057z"/><path d="m327.755 257.854c-1.689 0-3.058 1.369-3.058 3.057s1.369 3.057 3.058 3.057 3.057-1.369 3.057-3.057-1.369-3.057-3.057-3.057z"/><path d="m337.981 267.339c-1.689 0-3.057 1.369-3.057 3.057 0 1.689 1.369 3.058 3.057 3.058 1.689 0 3.057-1.369 3.057-3.058.001-1.688-1.368-3.057-3.057-3.057z"/><path d="m327.755 277.566c-1.689 0-3.058 1.369-3.058 3.057s1.369 3.057 3.058 3.057 3.057-1.369 3.057-3.057-1.369-3.057-3.057-3.057z"/><path d="m337.981 287.05c-1.689 0-3.057 1.369-3.057 3.057s1.369 3.057 3.057 3.057c1.689 0 3.057-1.369 3.057-3.057s-1.368-3.057-3.057-3.057z"/><path d="m327.755 297.277c-1.689 0-3.058 1.369-3.058 3.057s1.369 3.058 3.058 3.058 3.057-1.369 3.057-3.058-1.369-3.057-3.057-3.057z"/><path d="m337.981 306.761c-1.689 0-3.057 1.369-3.057 3.057s1.369 3.057 3.057 3.057c1.689 0 3.057-1.369 3.057-3.057s-1.368-3.057-3.057-3.057z"/><path d="m327.755 316.988c-1.689 0-3.058 1.369-3.058 3.057s1.369 3.057 3.058 3.057 3.057-1.369 3.057-3.057-1.369-3.057-3.057-3.057z"/><path d="m337.981 326.472c-1.689 0-3.057 1.369-3.057 3.057 0 1.689 1.369 3.058 3.057 3.058 1.689 0 3.057-1.369 3.057-3.058.001-1.688-1.368-3.057-3.057-3.057z"/><path d="m327.755 336.699c-1.689 0-3.058 1.369-3.058 3.057 0 .055.014.106.016.161 1.785-.703 3.535-1.458 5.263-2.25-.557-.593-1.343-.968-2.221-.968z"/></g><path d="m129.967 455.469 18.111 43.333c2.203 5.271 7.691 8.747 13.81 8.747h188.699c6.212 0 11.763-3.581 13.9-8.967l17.106-43.113z" fill="#f9fbfc"/><path d="m148.078 103.99-18.111 43.333h251.626l-17.106-43.113c-2.137-5.386-7.688-8.967-13.9-8.967h-188.699c-6.119 0-11.607 3.476-13.81 8.747z" fill="#f9fbfc"/><g fill="#eaa895"><path d="m364.12 458.023c0 1.688 1.369 3.057 3.058 3.057s3.057-1.369 3.057-3.057c0-1.069-.551-2.008-1.382-2.554h-3.351c-.832.546-1.382 1.485-1.382 2.554z"/><path d="m374.346 467.508c0 1.094.58 2.047 1.444 2.587l2.216-5.584c-.195-.039-.396-.061-.602-.061-1.689 0-3.058 1.369-3.058 3.058z"/><path d="m367.177 474.677c-1.689 0-3.058 1.369-3.058 3.057s1.369 3.057 3.058 3.057 3.057-1.369 3.057-3.057c0-1.689-1.368-3.057-3.057-3.057z"/><path d="m364.12 497.445c0 .465.112.901.297 1.295.022-.053.049-.104.07-.158l1.579-3.979c-1.138.446-1.946 1.547-1.946 2.842z"/><path d="m344.409 458.023c0 1.688 1.369 3.057 3.057 3.057s3.057-1.369 3.057-3.057c0-1.069-.551-2.008-1.382-2.554h-3.351c-.831.546-1.381 1.485-1.381 2.554z"/><path d="m357.693 464.45c-1.689 0-3.057 1.369-3.057 3.057 0 1.689 1.369 3.057 3.057 3.057 1.689 0 3.057-1.369 3.057-3.057s-1.369-3.057-3.057-3.057z"/><path d="m347.466 474.677c-1.689 0-3.057 1.369-3.057 3.057s1.369 3.057 3.057 3.057 3.057-1.369 3.057-3.057c0-1.689-1.369-3.057-3.057-3.057z"/><path d="m357.693 490.276c1.689 0 3.057-1.369 3.057-3.058 0-1.688-1.369-3.057-3.057-3.057-1.689 0-3.057 1.369-3.057 3.057-.001 1.689 1.368 3.058 3.057 3.058z"/><path d="m347.466 494.388c-1.689 0-3.057 1.369-3.057 3.058 0 1.688 1.369 3.057 3.057 3.057s3.057-1.369 3.057-3.057c0-1.689-1.369-3.058-3.057-3.058z"/><path d="m357.693 503.872c-1.689 0-3.057 1.369-3.057 3.057 0 .03.008.058.009.088 1.848-.487 3.562-1.296 5.058-2.375-.54-.473-1.237-.77-2.01-.77z"/><path d="m324.697 458.023c0 1.688 1.369 3.057 3.058 3.057s3.057-1.369 3.057-3.057c0-1.069-.551-2.008-1.382-2.554h-3.351c-.831.546-1.382 1.485-1.382 2.554z"/><circle cx="337.981" cy="467.508" r="3.057"/><path d="m327.755 474.677c-1.689 0-3.058 1.369-3.058 3.057s1.369 3.057 3.058 3.057 3.057-1.369 3.057-3.057c0-1.689-1.369-3.057-3.057-3.057z"/><path d="m318.26 464.408c-1.689 0-3.058 1.369-3.058 3.057 0 1.689 1.369 3.057 3.058 3.057s3.057-1.369 3.057-3.057-1.368-3.057-3.057-3.057z"/><path d="m337.981 484.161c-1.689 0-3.057 1.369-3.057 3.057 0 1.689 1.369 3.058 3.057 3.058 1.689 0 3.057-1.369 3.057-3.058.001-1.688-1.368-3.057-3.057-3.057z"/><path d="m327.755 500.503c1.689 0 3.057-1.369 3.057-3.057 0-1.689-1.369-3.058-3.057-3.058-1.689 0-3.058 1.369-3.058 3.058 0 1.688 1.369 3.057 3.058 3.057z"/><path d="m341.039 506.93c0-1.689-1.369-3.057-3.057-3.057-1.689 0-3.057 1.369-3.057 3.057 0 .212.022.42.063.62h5.989c.04-.201.062-.408.062-.62z"/><path d="m318.27 484.161c-1.689 0-3.058 1.369-3.058 3.057 0 1.689 1.369 3.058 3.058 3.058s3.057-1.369 3.057-3.058c.001-1.688-1.368-3.057-3.057-3.057z"/><path d="m308.072 494.359c-1.689 0-3.057 1.369-3.057 3.057 0 1.689 1.369 3.058 3.057 3.058 1.689 0 3.057-1.369 3.057-3.058.001-1.688-1.368-3.057-3.057-3.057z"/><path d="m321.328 506.93c0-1.689-1.369-3.057-3.057-3.057-1.689 0-3.058 1.369-3.058 3.057 0 .212.022.42.063.62h5.989c.041-.201.063-.408.063-.62z"/><path d="m301.617 506.93c0-1.11-.597-2.073-1.482-2.608-1.361 1.06-2.924 1.887-4.616 2.439-.003.057-.017.111-.017.169 0 .212.022.42.063.62h5.989c.041-.201.063-.408.063-.62z"/></g><g fill="#eaa895"><path d="m364.897 105.242-.41-1.033c-.107-.269-.225-.533-.348-.793.045.7.321 1.332.758 1.826z"/><path d="m367.177 125.992c1.689 0 3.057-1.369 3.057-3.057 0-1.689-1.369-3.058-3.057-3.058s-3.058 1.369-3.058 3.058c.001 1.688 1.37 3.057 3.058 3.057z"/><path d="m376.872 135.423-1.913-4.822c-.38.51-.612 1.134-.612 1.819-.001 1.505 1.091 2.75 2.525 3.003z"/><path d="m367.177 145.703c1.689 0 3.057-1.369 3.057-3.058 0-1.688-1.369-3.057-3.057-3.057s-3.058 1.369-3.058 3.057c.001 1.689 1.37 3.058 3.058 3.058z"/><path d="m347.466 100.165c-1.689 0-3.057 1.369-3.057 3.058s1.369 3.058 3.057 3.058 3.057-1.369 3.057-3.058-1.369-3.058-3.057-3.058z"/><path d="m354.635 112.708c0 1.689 1.369 3.058 3.057 3.058 1.689 0 3.057-1.369 3.057-3.058s-1.369-3.057-3.057-3.057c-1.688-.001-3.057 1.368-3.057 3.057z"/><path d="m347.466 119.877c-1.689 0-3.057 1.369-3.057 3.058s1.369 3.057 3.057 3.057 3.057-1.369 3.057-3.057c0-1.689-1.369-3.058-3.057-3.058z"/><path d="m357.693 135.476c1.689 0 3.057-1.368 3.057-3.057s-1.369-3.057-3.057-3.057c-1.689 0-3.057 1.368-3.057 3.057-.001 1.688 1.368 3.057 3.057 3.057z"/><path d="m347.466 139.588c-1.689 0-3.057 1.369-3.057 3.057 0 1.689 1.369 3.058 3.057 3.058s3.057-1.369 3.057-3.058c0-1.688-1.369-3.057-3.057-3.057z"/><path d="m337.981 96.054c.797 0 1.516-.312 2.06-.811h-4.119c.544.499 1.263.811 2.059.811z"/><path d="m327.755 100.165c-1.689 0-3.058 1.369-3.058 3.058s1.369 3.058 3.058 3.058 3.057-1.369 3.057-3.058-1.369-3.058-3.057-3.058z"/><path d="m337.981 109.65c-1.689 0-3.057 1.369-3.057 3.057 0 1.689 1.369 3.058 3.057 3.058 1.689 0 3.057-1.369 3.057-3.058.001-1.688-1.368-3.057-3.057-3.057z"/><path d="m327.755 119.877c-1.689 0-3.058 1.369-3.058 3.058s1.369 3.057 3.058 3.057 3.057-1.369 3.057-3.057c0-1.689-1.369-3.058-3.057-3.058z"/><path d="m318.26 129.442c-1.689 0-3.058 1.369-3.058 3.058s1.369 3.057 3.058 3.057 3.057-1.369 3.057-3.057c0-1.689-1.368-3.058-3.057-3.058z"/><path d="m337.981 129.361c-1.689 0-3.057 1.368-3.057 3.057s1.369 3.057 3.057 3.057c1.689 0 3.057-1.368 3.057-3.057.001-1.688-1.368-3.057-3.057-3.057z"/><path d="m327.755 145.703c1.689 0 3.057-1.369 3.057-3.058 0-1.688-1.369-3.057-3.057-3.057-1.689 0-3.058 1.369-3.058 3.057 0 1.689 1.369 3.058 3.058 3.058z"/><path d="m318.27 96.054c.797 0 1.515-.312 2.06-.811h-4.119c.544.499 1.263.811 2.059.811z"/><circle cx="308.044" cy="103.223" r="3.057"/><path d="m318.27 109.65c-1.689 0-3.058 1.369-3.058 3.057 0 1.689 1.369 3.058 3.058 3.058s3.057-1.369 3.057-3.058c.001-1.688-1.368-3.057-3.057-3.057z"/><path d="m298.559 96.054c.797 0 1.516-.312 2.06-.811h-4.119c.544.499 1.263.811 2.059.811z"/></g><path d="m356.105 68.552h-65.401l27.113-51.439c2.482-6.29-2.154-13.103-8.915-13.103-3.935 0-7.471 2.405-8.915 6.066l-30.053 58.475h-114.479c-6.894 0-12.482 5.589-12.482 12.482v1.726c0 6.894 5.589 12.482 12.482 12.482h200.65c6.894 0 12.482-5.588 12.482-12.482v-1.726c0-6.892-5.588-12.481-12.482-12.481z" fill="#f9fbfc"/><path d="m385.604 147.323c0-.005-.001-.01-.001-.015-.001-.238-.028-.475-.072-.71-.009-.051-.018-.102-.03-.152-.046-.203-.102-.405-.18-.602l-17.106-43.114c-.861-2.171-2.159-4.115-3.774-5.762 4.871-2.869 8.157-8.156 8.157-14.207v-1.726c0-9.094-7.399-16.493-16.493-16.493h-58.753l24.013-45.558c.068-.129.129-.262.183-.398 1.653-4.19 1.128-8.915-1.406-12.639-2.534-3.724-6.736-5.947-11.24-5.947-5.548 0-10.457 3.292-12.566 8.405l-28.851 56.136h-112.03c-9.094 0-16.493 7.399-16.493 16.493v1.726c0 6.288 3.54 11.762 8.729 14.543-1.376 1.494-2.51 3.217-3.313 5.14l-18.101 43.308c-.003.007-.006.014-.009.022l-.001.003c-.089.212-.151.43-.202.651-.012.054-.025.109-.035.164-.043.231-.068.463-.07.695 0 .013-.004.024-.004.037v308.146c0 .013.004.024.004.037.002.233.027.465.07.695.01.056.022.11.035.164.05.22.113.439.202.651l.001.003.009.021 18.101 43.308c2.846 6.811 9.72 11.212 17.511 11.212h188.699c7.815 0 14.899-4.621 17.628-11.499l17.106-43.113c.078-.197.134-.398.18-.602.011-.05.021-.101.03-.152.043-.235.071-.473.072-.71 0-.005.001-.01.001-.015v-308.146zm-251.627 4.011h243.605v300.125h-243.605zm169.577-139.424c.061-.118.115-.238.163-.361.846-2.143 2.881-3.527 5.185-3.527 1.874 0 3.554.888 4.608 2.438 1.018 1.497 1.249 3.309.644 5.002l-25.869 49.079h-11.781zm-156.571 69.124c0-4.671 3.801-8.472 8.472-8.472h200.65c4.671 0 8.472 3.801 8.472 8.472v1.726c0 4.671-3.801 8.471-8.472 8.471h-5.517-188.7-6.433c-4.671 0-8.472-3.8-8.472-8.471zm4.795 24.503c1.571-3.759 5.634-6.283 10.11-6.283h188.699c4.557 0 8.645 2.586 10.172 6.435l14.928 37.624h-239.697zm208.982 391.566c-1.528 3.849-5.615 6.435-10.172 6.435h-188.7c-4.477 0-8.539-2.525-10.11-6.283l-15.788-37.775h239.697z" fill="#31373d"/></g></svg>