<svg id="Capa_1" enable-background="new 0 0 510.314 510.314" height="512" viewBox="0 0 510.314 510.314" width="512" xmlns="http://www.w3.org/2000/svg"><g><path d="m506.127 308.752c-.645-14.172-9.554-22.553-17.569-31.627 2.918-7.259 4.663-14.385 3.211-21.159-1.846-8.612-8.619-15.612-16.371-22.294.255-1.762.571-3.54.963-5.337 2.36-10.824 5.3-21.805 5.978-32.504.629-9.918-1.167-19.295-7.828-24.919-8.635-7.291-19.699-10.78-30.453-14.62-.955-5.197-2.667-9.931-5.757-13.81-4.612-5.791-11.946-8.948-20.167-11.3-.151-.477-.308-.945-.448-1.437-3.112-10.852-3.03-23.206-6.613-33.845-3.58-10.635-10.905-17.162-21.886-18.847-10.378-1.592-21.736.753-32.712 2.2-.845.112-1.683.212-2.514.303-3.906-6.401-8.378-11.78-14.375-14.549-7.499-3.463-16.386-2.671-25.609-.769-5.06-6.335-9.359-13.482-14.904-19.318-7.81-8.22-17.129-11.967-30.068-8.242-9.619 2.769-18.815 8.047-28.016 13.121-7.94-5.553-15.962-9.999-24.343-9.758-10.817.311-20.614 8.402-30.413 16.587-5.819-2.614-11.508-5.493-17.761-7.3-10.777-3.113-20.898-4.731-33.02 3.055-6.834 4.389-12.47 10.385-18.051 16.473-8.054-1.028-15.703-.948-22.135 2.335-17.712 9.041-21.011 40.818-36.762 53.837-8.015 6.624-18.816 10.443-30.843 13.532l-18.9 20.256 417.584 326.42 13.563-20.756c.415-13.515 1.913-24.419 6.892-34.706 8.902-18.394 38.986-29.15 43.557-48.503 1.988-8.415-.894-17.432-4.836-26.556 1.968-2.755 3.951-5.551 5.869-8.47 7.412-11.277 15.305-25.019 14.737-37.493z" fill="#f9fbfc"/><path d="m266.599 126.597h.01z" fill="#31373d"/><path d="m357.227 75.005c-23.029-18.073-54.093-18.897-77.622-4.348-3.173-15.056-11.445-29.124-24.496-39.367-29.491-23.146-72.161-18.001-95.307 11.49s-18.002 72.161 11.49 95.307c23.028 18.074 54.092 18.897 77.622 4.348 3.173 15.056 11.446 29.124 24.496 39.367 29.491 23.146 72.162 18.001 95.307-11.489 23.145-29.492 18.001-72.163-11.49-95.308z" fill="#eaa895"/><path d="m9.311 179.961 394.857 309.896c6.622 5.197 16.25 3.742 21.058-3.167 79.737-114.591 57.08-272.901-54.14-360.189-111.753-87.707-271.904-71.521-364.058 34.523-4.599 5.86-3.577 14.338 2.283 18.937z" fill="#e9c278"/><g fill="#f9fbfc"><path d="m464.107 276.447c-1.781 0-3.225 1.444-3.225 3.225s1.444 3.224 3.225 3.224c1.291 0 2.396-.763 2.911-1.858-.264-1.267-.53-2.533-.812-3.796-.566-.488-1.294-.795-2.099-.795z"/><path d="m464.107 297.236c-1.781 0-3.225 1.444-3.225 3.225s1.444 3.224 3.225 3.224 3.224-1.443 3.224-3.224-1.444-3.225-3.224-3.225z"/><path d="m464.107 318.024c-1.781 0-3.225 1.444-3.225 3.225s1.444 3.224 3.225 3.224 3.224-1.443 3.224-3.224-1.444-3.225-3.224-3.225z"/><path d="m464.107 338.812c-1.781 0-3.225 1.444-3.225 3.225s1.444 3.224 3.225 3.224 3.224-1.443 3.224-3.224-1.444-3.225-3.224-3.225z"/><path d="m464.107 359.6c-1.781 0-3.225 1.444-3.225 3.225s1.444 3.224 3.225 3.224 3.224-1.443 3.224-3.224-1.444-3.225-3.224-3.225z"/><path d="m464.107 380.389c-1.781 0-3.225 1.444-3.225 3.225s1.444 3.224 3.225 3.224 3.224-1.443 3.224-3.224-1.444-3.225-3.224-3.225z"/><path d="m440.094 217.308c0 1.781 1.444 3.224 3.224 3.224 1.084 0 2.038-.539 2.622-1.359-.826-1.702-1.676-3.395-2.54-5.081-.028-.001-.054-.009-.082-.009-1.781 0-3.224 1.444-3.224 3.225z"/><path d="m443.318 234.871c-1.781 0-3.224 1.444-3.224 3.225s1.444 3.224 3.224 3.224 3.225-1.443 3.225-3.224-1.444-3.225-3.225-3.225z"/><path d="m454.104 244.874c-1.781 0-3.224 1.444-3.224 3.225s1.444 3.224 3.224 3.224c1.781 0 3.225-1.443 3.225-3.224s-1.444-3.225-3.225-3.225z"/><path d="m443.318 255.659c-1.781 0-3.224 1.444-3.224 3.225s1.444 3.224 3.224 3.224 3.225-1.443 3.225-3.224-1.444-3.225-3.225-3.225z"/><path d="m454.104 265.662c-1.781 0-3.224 1.444-3.224 3.225s1.444 3.224 3.224 3.224c1.781 0 3.225-1.443 3.225-3.224-.001-1.781-1.444-3.225-3.225-3.225z"/><path d="m443.318 276.447c-1.781 0-3.224 1.444-3.224 3.225s1.444 3.224 3.224 3.224 3.225-1.443 3.225-3.224-1.444-3.225-3.225-3.225z"/><path d="m454.104 286.45c-1.781 0-3.224 1.444-3.224 3.225s1.444 3.224 3.224 3.224c1.781 0 3.225-1.443 3.225-3.224-.001-1.781-1.444-3.225-3.225-3.225z"/><path d="m443.318 297.236c-1.781 0-3.224 1.444-3.224 3.225s1.444 3.224 3.224 3.224 3.225-1.443 3.225-3.224-1.444-3.225-3.225-3.225z"/><path d="m454.104 307.239c-1.781 0-3.224 1.444-3.224 3.225s1.444 3.224 3.224 3.224c1.781 0 3.225-1.443 3.225-3.224-.001-1.782-1.444-3.225-3.225-3.225z"/><path d="m443.318 318.024c-1.781 0-3.224 1.444-3.224 3.225s1.444 3.224 3.224 3.224 3.225-1.443 3.225-3.224-1.444-3.225-3.225-3.225z"/><path d="m454.104 328.027c-1.781 0-3.224 1.444-3.224 3.225s1.444 3.224 3.224 3.224c1.781 0 3.225-1.443 3.225-3.224-.001-1.781-1.444-3.225-3.225-3.225z"/><path d="m443.318 338.812c-1.781 0-3.224 1.444-3.224 3.225s1.444 3.224 3.224 3.224 3.225-1.443 3.225-3.224-1.444-3.225-3.225-3.225z"/><path d="m454.104 348.815c-1.781 0-3.224 1.444-3.224 3.225s1.444 3.224 3.224 3.224c1.781 0 3.225-1.443 3.225-3.224-.001-1.781-1.444-3.225-3.225-3.225z"/><path d="m443.318 359.6c-1.781 0-3.224 1.444-3.224 3.225s1.444 3.224 3.224 3.224 3.225-1.443 3.225-3.224-1.444-3.225-3.225-3.225z"/><path d="m454.104 369.603c-1.781 0-3.224 1.444-3.224 3.225s1.444 3.224 3.224 3.224c1.781 0 3.225-1.443 3.225-3.224-.001-1.781-1.444-3.225-3.225-3.225z"/><path d="m443.318 380.389c-1.781 0-3.224 1.444-3.224 3.225s1.444 3.224 3.224 3.224 3.225-1.443 3.225-3.224-1.444-3.225-3.225-3.225z"/><path d="m454.104 390.391c-1.781 0-3.224 1.444-3.224 3.225s1.444 3.224 3.224 3.224c1.781 0 3.225-1.443 3.225-3.224-.001-1.781-1.444-3.225-3.225-3.225z"/><path d="m443.318 401.177c-1.781 0-3.224 1.444-3.224 3.225s1.444 3.224 3.224 3.224 3.225-1.443 3.225-3.224-1.444-3.225-3.225-3.225z"/><path d="m454.104 411.18c-1.781 0-3.224 1.444-3.224 3.225s1.444 3.224 3.224 3.224c1.781 0 3.225-1.443 3.225-3.224-.001-1.781-1.444-3.225-3.225-3.225z"/><path d="m443.318 421.965c-1.781 0-3.224 1.444-3.224 3.225s1.444 3.224 3.224 3.224 3.225-1.443 3.225-3.224-1.444-3.225-3.225-3.225z"/><path d="m443.318 442.753c-1.781 0-3.224 1.444-3.224 3.225s1.444 3.224 3.224 3.224 3.225-1.443 3.225-3.224-1.444-3.225-3.225-3.225z"/><path d="m422.53 193.295c-1.781 0-3.225 1.444-3.225 3.225s1.444 3.224 3.225 3.224 3.225-1.443 3.225-3.224-1.444-3.225-3.225-3.225z"/><path d="m433.315 203.297c-1.781 0-3.225 1.444-3.225 3.225s1.444 3.224 3.225 3.224 3.225-1.443 3.225-3.224-1.444-3.225-3.225-3.225z"/><path d="m422.53 214.083c-1.781 0-3.225 1.444-3.225 3.225s1.444 3.224 3.225 3.224 3.225-1.443 3.225-3.224-1.444-3.225-3.225-3.225z"/><path d="m433.315 224.086c-1.781 0-3.225 1.444-3.225 3.225s1.444 3.224 3.225 3.224 3.225-1.443 3.225-3.224c0-1.782-1.444-3.225-3.225-3.225z"/><path d="m422.53 234.871c-1.781 0-3.225 1.444-3.225 3.225s1.444 3.224 3.225 3.224 3.225-1.443 3.225-3.224-1.444-3.225-3.225-3.225z"/><path d="m433.315 244.874c-1.781 0-3.225 1.444-3.225 3.225s1.444 3.224 3.225 3.224 3.225-1.443 3.225-3.224-1.444-3.225-3.225-3.225z"/><path d="m422.53 255.659c-1.781 0-3.225 1.444-3.225 3.225s1.444 3.224 3.225 3.224 3.225-1.443 3.225-3.224-1.444-3.225-3.225-3.225z"/><path d="m433.315 265.662c-1.781 0-3.225 1.444-3.225 3.225s1.444 3.224 3.225 3.224 3.225-1.443 3.225-3.224-1.444-3.225-3.225-3.225z"/><path d="m422.53 276.447c-1.781 0-3.225 1.444-3.225 3.225s1.444 3.224 3.225 3.224 3.225-1.443 3.225-3.224-1.444-3.225-3.225-3.225z"/><path d="m433.315 286.45c-1.781 0-3.225 1.444-3.225 3.225s1.444 3.224 3.225 3.224 3.225-1.443 3.225-3.224-1.444-3.225-3.225-3.225z"/><path d="m422.53 297.236c-1.781 0-3.225 1.444-3.225 3.225s1.444 3.224 3.225 3.224 3.225-1.443 3.225-3.224-1.444-3.225-3.225-3.225z"/><path d="m433.315 307.239c-1.781 0-3.225 1.444-3.225 3.225s1.444 3.224 3.225 3.224 3.225-1.443 3.225-3.224c0-1.782-1.444-3.225-3.225-3.225z"/><path d="m422.53 318.024c-1.781 0-3.225 1.444-3.225 3.225s1.444 3.224 3.225 3.224 3.225-1.443 3.225-3.224-1.444-3.225-3.225-3.225z"/><path d="m433.315 328.027c-1.781 0-3.225 1.444-3.225 3.225s1.444 3.224 3.225 3.224 3.225-1.443 3.225-3.224-1.444-3.225-3.225-3.225z"/><path d="m422.53 338.812c-1.781 0-3.225 1.444-3.225 3.225s1.444 3.224 3.225 3.224 3.225-1.443 3.225-3.224-1.444-3.225-3.225-3.225z"/><path d="m433.315 348.815c-1.781 0-3.225 1.444-3.225 3.225s1.444 3.224 3.225 3.224 3.225-1.443 3.225-3.224-1.444-3.225-3.225-3.225z"/><path d="m422.53 359.6c-1.781 0-3.225 1.444-3.225 3.225s1.444 3.224 3.225 3.224 3.225-1.443 3.225-3.224-1.444-3.225-3.225-3.225z"/><path d="m433.315 369.603c-1.781 0-3.225 1.444-3.225 3.225s1.444 3.224 3.225 3.224 3.225-1.443 3.225-3.224-1.444-3.225-3.225-3.225z"/><path d="m422.53 380.389c-1.781 0-3.225 1.444-3.225 3.225s1.444 3.224 3.225 3.224 3.225-1.443 3.225-3.224-1.444-3.225-3.225-3.225z"/><path d="m433.315 390.391c-1.781 0-3.225 1.444-3.225 3.225s1.444 3.224 3.225 3.224 3.225-1.443 3.225-3.224-1.444-3.225-3.225-3.225z"/><path d="m422.53 401.177c-1.781 0-3.225 1.444-3.225 3.225s1.444 3.224 3.225 3.224 3.225-1.443 3.225-3.224-1.444-3.225-3.225-3.225z"/><path d="m433.315 411.18c-1.781 0-3.225 1.444-3.225 3.225s1.444 3.224 3.225 3.224 3.225-1.443 3.225-3.224-1.444-3.225-3.225-3.225z"/><path d="m422.53 421.965c-1.781 0-3.225 1.444-3.225 3.225s1.444 3.224 3.225 3.224 3.225-1.443 3.225-3.224-1.444-3.225-3.225-3.225z"/><path d="m433.315 431.968c-1.781 0-3.225 1.444-3.225 3.225s1.444 3.224 3.225 3.224 3.225-1.443 3.225-3.224-1.444-3.225-3.225-3.225z"/><path d="m422.53 442.753c-1.781 0-3.225 1.444-3.225 3.225s1.444 3.224 3.225 3.224 3.225-1.443 3.225-3.224-1.444-3.225-3.225-3.225z"/><path d="m433.315 452.756c-1.781 0-3.225 1.444-3.225 3.225s1.444 3.224 3.225 3.224 3.225-1.444 3.225-3.224c0-1.781-1.444-3.225-3.225-3.225z"/><path d="m422.53 463.542c-1.781 0-3.225 1.444-3.225 3.225s1.444 3.224 3.225 3.224 3.225-1.443 3.225-3.224-1.444-3.225-3.225-3.225z"/><path d="m401.742 172.506c-1.781 0-3.225 1.444-3.225 3.225s1.444 3.224 3.225 3.224 3.224-1.443 3.224-3.224-1.443-3.225-3.224-3.225z"/><path d="m412.527 182.509c-1.781 0-3.225 1.444-3.225 3.225s1.444 3.224 3.225 3.224 3.224-1.443 3.224-3.224c.001-1.781-1.443-3.225-3.224-3.225z"/><path d="m401.742 193.295c-1.781 0-3.225 1.444-3.225 3.225s1.444 3.224 3.225 3.224 3.224-1.443 3.224-3.224-1.443-3.225-3.224-3.225z"/><path d="m412.527 203.297c-1.781 0-3.225 1.444-3.225 3.225s1.444 3.224 3.225 3.224 3.224-1.443 3.224-3.224-1.443-3.225-3.224-3.225z"/><path d="m401.742 220.532c1.781 0 3.224-1.443 3.224-3.224s-1.444-3.225-3.224-3.225c-1.781 0-3.225 1.444-3.225 3.225s1.444 3.224 3.225 3.224z"/><path d="m412.527 224.086c-1.781 0-3.225 1.444-3.225 3.225s1.444 3.224 3.225 3.224 3.224-1.443 3.224-3.224c.001-1.782-1.443-3.225-3.224-3.225z"/><path d="m412.527 244.874c-1.781 0-3.225 1.444-3.225 3.225s1.444 3.224 3.225 3.224 3.224-1.443 3.224-3.224-1.443-3.225-3.224-3.225z"/><path d="m401.732 234.936c-1.781 0-3.225 1.444-3.225 3.225s1.444 3.224 3.225 3.224 3.224-1.443 3.224-3.224-1.443-3.225-3.224-3.225z"/><path d="m412.527 265.662c-1.781 0-3.225 1.444-3.225 3.225s1.444 3.224 3.225 3.224 3.224-1.443 3.224-3.224c.001-1.781-1.443-3.225-3.224-3.225z"/><path d="m412.527 286.45c-1.781 0-3.225 1.444-3.225 3.225s1.444 3.224 3.225 3.224 3.224-1.443 3.224-3.224c.001-1.781-1.443-3.225-3.224-3.225z"/><path d="m412.527 307.239c-1.781 0-3.225 1.444-3.225 3.225s1.444 3.224 3.225 3.224 3.224-1.443 3.224-3.224c.001-1.782-1.443-3.225-3.224-3.225z"/><path d="m401.732 318.033c-1.781 0-3.225 1.444-3.225 3.225s1.444 3.224 3.225 3.224 3.224-1.443 3.224-3.224c.001-1.781-1.443-3.225-3.224-3.225z"/><path d="m412.527 328.027c-1.781 0-3.225 1.444-3.225 3.225s1.444 3.224 3.225 3.224 3.224-1.443 3.224-3.224c.001-1.781-1.443-3.225-3.224-3.225z"/><path d="m401.742 338.812c-1.781 0-3.225 1.444-3.225 3.225s1.444 3.224 3.225 3.224 3.224-1.443 3.224-3.224-1.443-3.225-3.224-3.225z"/><path d="m412.527 348.815c-1.781 0-3.225 1.444-3.225 3.225s1.444 3.224 3.225 3.224 3.224-1.443 3.224-3.224c.001-1.781-1.443-3.225-3.224-3.225z"/><path d="m401.742 359.6c-1.781 0-3.225 1.444-3.225 3.225s1.444 3.224 3.225 3.224 3.224-1.443 3.224-3.224-1.443-3.225-3.224-3.225z"/><path d="m391.718 369.624c-1.781 0-3.225 1.444-3.225 3.225s1.444 3.224 3.225 3.224 3.225-1.443 3.225-3.224-1.444-3.225-3.225-3.225z"/><path d="m412.527 369.603c-1.781 0-3.225 1.444-3.225 3.225s1.444 3.224 3.225 3.224 3.224-1.443 3.224-3.224c.001-1.781-1.443-3.225-3.224-3.225z"/><path d="m401.742 380.389c-1.781 0-3.225 1.444-3.225 3.225s1.444 3.224 3.225 3.224 3.224-1.443 3.224-3.224-1.443-3.225-3.224-3.225z"/><path d="m412.527 390.391c-1.781 0-3.225 1.444-3.225 3.225s1.444 3.224 3.225 3.224 3.224-1.443 3.224-3.224c.001-1.781-1.443-3.225-3.224-3.225z"/><path d="m401.742 401.177c-1.781 0-3.225 1.444-3.225 3.225s1.444 3.224 3.225 3.224 3.224-1.443 3.224-3.224-1.443-3.225-3.224-3.225z"/><path d="m412.527 411.18c-1.781 0-3.225 1.444-3.225 3.225s1.444 3.224 3.225 3.224 3.224-1.443 3.224-3.224c.001-1.781-1.443-3.225-3.224-3.225z"/><path d="m401.742 421.965c-1.781 0-3.225 1.444-3.225 3.225s1.444 3.224 3.225 3.224 3.224-1.443 3.224-3.224-1.443-3.225-3.224-3.225z"/><path d="m412.527 431.968c-1.781 0-3.225 1.444-3.225 3.225s1.444 3.224 3.225 3.224 3.224-1.443 3.224-3.224c.001-1.781-1.443-3.225-3.224-3.225z"/><path d="m401.742 442.753c-1.781 0-3.225 1.444-3.225 3.225s1.444 3.224 3.225 3.224 3.224-1.443 3.224-3.224-1.443-3.225-3.224-3.225z"/><path d="m412.527 452.756c-1.781 0-3.225 1.444-3.225 3.225s1.444 3.224 3.225 3.224 3.224-1.444 3.224-3.224c.001-1.781-1.443-3.225-3.224-3.225z"/><path d="m401.742 463.542c-1.781 0-3.225 1.444-3.225 3.225s1.444 3.224 3.225 3.224 3.224-1.443 3.224-3.224-1.443-3.225-3.224-3.225z"/><path d="m412.527 473.544c-1.781 0-3.225 1.444-3.225 3.225s1.444 3.224 3.225 3.224 3.224-1.443 3.224-3.224c.001-1.781-1.443-3.225-3.224-3.225z"/><path d="m384.178 154.943c0-1.781-1.444-3.225-3.225-3.225s-3.225 1.444-3.225 3.225 1.444 3.224 3.225 3.224 3.225-1.443 3.225-3.224z"/><path d="m391.739 161.721c-1.781 0-3.225 1.444-3.225 3.225s1.444 3.224 3.225 3.224 3.225-1.443 3.225-3.224-1.444-3.225-3.225-3.225z"/><path d="m394.964 185.734c0-1.781-1.444-3.225-3.225-3.225s-3.225 1.444-3.225 3.225 1.444 3.224 3.225 3.224 3.225-1.443 3.225-3.224z"/><path d="m384.254 175.71c0-1.781-1.444-3.225-3.225-3.225s-3.225 1.444-3.225 3.225 1.444 3.224 3.225 3.224c1.782 0 3.225-1.443 3.225-3.224z"/><path d="m391.739 390.391c-1.781 0-3.225 1.444-3.225 3.225s1.444 3.224 3.225 3.224 3.225-1.443 3.225-3.224-1.444-3.225-3.225-3.225z"/><path d="m380.954 401.177c-1.781 0-3.225 1.444-3.225 3.225s1.444 3.224 3.225 3.224 3.225-1.443 3.225-3.224c-.001-1.781-1.445-3.225-3.225-3.225z"/><path d="m391.739 411.18c-1.781 0-3.225 1.444-3.225 3.225s1.444 3.224 3.225 3.224 3.225-1.443 3.225-3.224-1.444-3.225-3.225-3.225z"/><path d="m380.954 421.965c-1.781 0-3.225 1.444-3.225 3.225s1.444 3.224 3.225 3.224 3.225-1.443 3.225-3.224c-.001-1.781-1.445-3.225-3.225-3.225z"/><path d="m370.93 411.17c-1.781 0-3.225 1.444-3.225 3.225s1.444 3.224 3.225 3.224 3.224-1.443 3.224-3.224-1.443-3.225-3.224-3.225z"/><path d="m391.739 431.968c-1.781 0-3.225 1.444-3.225 3.225s1.444 3.224 3.225 3.224 3.225-1.443 3.225-3.224-1.444-3.225-3.225-3.225z"/><path d="m380.954 442.753c-1.781 0-3.225 1.444-3.225 3.225s1.444 3.224 3.225 3.224 3.225-1.443 3.225-3.224c-.001-1.781-1.445-3.225-3.225-3.225z"/><path d="m391.739 452.756c-1.781 0-3.225 1.444-3.225 3.225s1.444 3.224 3.225 3.224 3.225-1.444 3.225-3.224c0-1.781-1.444-3.225-3.225-3.225z"/><path d="m380.954 463.542c-1.781 0-3.225 1.444-3.225 3.225s1.444 3.224 3.225 3.224 3.225-1.443 3.225-3.224c-.001-1.781-1.445-3.225-3.225-3.225z"/><path d="m394.964 476.769c0-1.781-1.444-3.225-3.225-3.225s-3.225 1.444-3.225 3.225c0 .322.062.627.15.921l2.915 2.287c.054.003.105.016.16.016 1.781.001 3.225-1.443 3.225-3.224z"/><path d="m374.175 144.157c0-1.781-1.444-3.225-3.225-3.225s-3.225 1.444-3.225 3.225 1.444 3.224 3.225 3.224c1.782.001 3.225-1.443 3.225-3.224z"/><path d="m363.38 134.134c0-1.781-1.444-3.225-3.224-3.225-1.781 0-3.225 1.444-3.225 3.225s1.444 3.224 3.225 3.224 3.224-1.443 3.224-3.224z"/><path d="m353.357 123.339c0-1.781-1.444-3.225-3.225-3.225s-3.225 1.444-3.225 3.225 1.444 3.224 3.225 3.224 3.225-1.443 3.225-3.224z"/><path d="m370.951 431.968c-1.781 0-3.225 1.444-3.225 3.225s1.444 3.224 3.225 3.224 3.225-1.443 3.225-3.224c-.001-1.781-1.444-3.225-3.225-3.225z"/><path d="m360.165 449.202c1.781 0 3.224-1.443 3.224-3.224s-1.444-3.225-3.224-3.225c-1.781 0-3.225 1.444-3.225 3.225.001 1.781 1.444 3.224 3.225 3.224z"/><path d="m370.951 452.756c-1.781 0-3.225 1.444-3.225 3.225s1.444 3.224 3.225 3.224 3.225-1.444 3.225-3.224c-.001-1.781-1.444-3.225-3.225-3.225z"/></g><g fill="#31373d"><path d="m490.233 355.255c1.55-2.185 3.108-4.408 4.632-6.727 7.97-12.127 16.034-26.358 15.416-39.966-.648-14.224-8.544-22.995-16.179-31.477-.219-.243-.43-.482-.647-.724.862-2.407 1.604-4.869 2.129-7.42 2.326-11.305-1.044-21.904-10.018-31.503-1.776-1.9-3.695-3.69-5.675-5.415.162-.928.327-1.858.534-2.804.465-2.134.953-4.274 1.441-6.417 1.996-8.75 4.058-17.799 4.624-26.71.819-12.918-2.308-22.459-9.295-28.357-8.437-7.126-18.808-10.788-28.838-14.331-.319-.113-.635-.228-.953-.342-2.231-8.384-7.007-16.779-17.299-21.997-2.836-1.438-5.751-2.563-8.698-3.499-1.188-4.476-1.862-9.218-2.566-14.219-.88-6.257-1.79-12.727-3.827-18.776-4.125-12.255-12.838-19.735-25.196-21.63-8.831-1.352-18.103-.081-27.1 1.227-.951-.83-1.921-1.646-2.925-2.435-13.395-10.513-29.702-15.847-46.518-15.337-.495-.683-.99-1.366-1.489-2.061-2.984-4.161-6.07-8.461-9.699-12.28-9.653-10.16-20.848-13.225-34.232-9.374-1.217.35-2.424.748-3.626 1.171-2.043-2.049-4.222-4.003-6.554-5.834-31.247-24.523-76.621-19.054-101.144 12.194-.615.784-1.205 1.58-1.782 2.381-6.632-.208-13.733 1.277-21.542 6.293-6.564 4.216-12.025 9.76-17.203 15.356-6.623-.706-13.408-.488-19.943 2.052-13.619 5.295-19.554 18.785-24.79 30.689-.771 1.751-1.528 3.471-2.294 5.129-.357.77-.742 1.542-1.112 2.315-23.758 14.352-45.353 32.442-63.975 53.87-.045.053-.089.105-.132.16-6.007 7.654-4.667 18.767 2.986 24.774l395.807 310.642c3.142 2.466 6.907 3.762 10.818 3.762.87 0 1.747-.064 2.625-.194 4.794-.706 9.147-3.393 11.941-7.37 16.485-23.464 28.702-48.693 36.813-74.744 1.919-1.569 3.904-3.118 5.921-4.682 2.9-2.249 5.898-4.574 8.695-7.005 5.462-4.75 12.063-11.309 14.642-19.946 2.65-8.877.168-17.804-1.932-23.746-.559-1.583-1.188-3.143-1.841-4.693zm11.741-46.314c.515 11.301-7.242 24.651-14.057 35.021-.557.848-1.137 1.673-1.708 2.508-.128-.266-.257-.537-.385-.803-3.945-8.184-7.673-15.914-8.443-24.357-.78-8.547 2.898-16.979 6.731-24.883.84-1.731 1.716-3.458 2.595-5.192 1.068-2.105 2.14-4.237 3.171-6.401 6.193 6.966 11.632 13.92 12.096 24.107zm-30.144-134.852c4.864 4.107 7.004 11.333 6.36 21.479-.522 8.242-2.509 16.958-4.432 25.387-.387 1.699-.767 3.392-1.142 5.085-.093-.074-.186-.149-.279-.222-8.061-6.415-15.674-12.475-19.464-21.111-3.681-8.387-3.598-17.761-3.512-27.687.027-3.227.057-6.564-.06-9.823-.054-1.507-.144-3.096-.293-4.737 8.476 3.038 16.403 6.209 22.822 11.629zm-30.837-6.595c.11 3.075.082 6.174.054 9.454-.09 10.364-.184 21.081 4.213 31.1 4.616 10.52 13.403 17.513 21.9 24.276 4.505 3.585 8.76 6.972 12.333 10.793 7.124 7.621 9.723 15.52 7.948 24.15-1.431 6.956-4.847 13.692-8.15 20.207-.901 1.777-1.799 3.549-2.659 5.324-.804 1.657-1.614 3.37-2.393 5.131-8.599-61.328-38.232-119.685-87.173-163.438.2-2.398.278-4.802.239-7.201 5.988 2.358 12.211 3.673 18.26 4.94 7.411 1.554 14.411 3.021 20.782 6.252 9.583 4.86 14.101 13.808 14.646 29.012zm-52.435-86.332c9.343 1.432 15.419 6.687 18.576 16.063 1.79 5.318 2.608 11.129 3.473 17.28.495 3.525 1.018 7.124 1.732 10.676-1.697-.379-3.39-.738-5.07-1.09-6.919-1.451-13.454-2.821-19.485-5.623-.428-.199-.844-.413-1.255-.635-1.948-13.158-7.504-25.797-16.483-36.281 6.385-.808 12.733-1.277 18.512-.39zm-9.976 39.615c.274 2.27.417 4.534.449 6.789-1.771-1.463-3.562-2.91-5.379-4.335-28.285-22.199-60.188-38.244-93.965-47.665 8.272-5.596 17.803-9.196 28.004-10.426 2.594-.313 5.182-.468 7.755-.468 14.186 0 27.879 4.709 39.213 13.605 13.39 10.507 21.886 25.601 23.923 42.5zm-82.521-72.994c2.736 2.88 5.155 6.115 7.62 9.53-7.563 1.231-14.77 3.622-21.421 7.056-2.478-8.468-6.512-16.528-12.053-23.709 10.375-2.974 18.349-.773 25.854 7.123zm-132.989-2.437c12.555-15.996 31.284-24.355 50.196-24.355 13.766 0 27.631 4.431 39.274 13.569 11.439 8.978 18.954 21.119 22.316 34.221-1.883 1.282-3.704 2.661-5.465 4.124-28.511-6.742-58.207-8.827-88.086-5.938-10.302.997-20.465 2.579-30.46 4.703 1.926-9.319 5.961-18.343 12.225-26.324zm-25.37 10.536c4.101-2.634 7.883-4.074 11.703-4.653-3.013 5.742-5.183 11.773-6.531 17.928-2.133-.318-4.316-.708-6.574-1.141-1.97-.378-3.972-.807-5.997-1.241-1.432-.308-2.892-.619-4.37-.92 3.694-3.78 7.486-7.222 11.769-9.973zm-38.628 18.163c9.062-3.524 19.443-1.294 29.484.859 1.648.354 3.336.71 5.009 1.044-18.598 5.252-36.488 12.463-53.409 21.5 4.451-9.981 9.422-19.713 18.916-23.403zm322.057 411.246c-1.511 2.15-3.766 3.544-6.351 3.925-2.544.374-5.068-.291-7.095-1.883l-395.807-310.642c-4.022-3.157-4.746-8.98-1.637-13.025 91.334-105.019 248.683-119.907 358.277-33.895 109.297 85.779 132.407 241.942 52.613 355.52zm64.906-103.976c-1.966 6.588-7.515 12.038-12.13 16.05-1.699 1.477-3.471 2.903-5.303 4.343 4.679-18.41 7.356-37.145 8.073-55.884.549 1.158 1.103 2.309 1.655 3.454 2.219 4.601 4.314 8.947 5.9 13.439 2.721 7.702 3.295 13.612 1.805 18.598z"/><path d="m177.364 172.03c-11.242 0-20.387-9.146-20.387-20.386 0-11.242 9.146-20.387 20.387-20.387s20.386 9.146 20.386 20.387c0 11.24-9.146 20.386-20.386 20.386zm0-32.459c-6.657 0-12.072 5.415-12.072 12.072 0 6.656 5.415 12.071 12.072 12.071 6.656 0 12.071-5.415 12.071-12.071s-5.416-12.072-12.071-12.072z"/><path d="m188.768 264.142c-11.242 0-20.387-9.146-20.387-20.386 0-11.242 9.146-20.387 20.387-20.387s20.386 9.146 20.386 20.387c0 11.24-9.146 20.386-20.386 20.386zm0-32.459c-6.657 0-12.072 5.415-12.072 12.072 0 6.656 5.415 12.071 12.072 12.071 6.656 0 12.071-5.415 12.071-12.071s-5.416-12.072-12.071-12.072z"/><path d="m367.289 243.965c-11.242 0-20.387-9.146-20.387-20.387s9.146-20.387 20.387-20.387 20.386 9.146 20.386 20.387-9.146 20.387-20.386 20.387zm0-32.459c-6.657 0-12.072 5.415-12.072 12.072s5.415 12.072 12.072 12.072c6.656 0 12.071-5.415 12.071-12.072s-5.416-12.072-12.071-12.072z"/></g></g></svg>