<svg id="Capa_1" enable-background="new 0 0 510.256 510.256" height="512" viewBox="0 0 510.256 510.256" width="512" xmlns="http://www.w3.org/2000/svg"><g><path d="m69.794 259.299 23.66 208.86c2.457 21.689 20.806 38.077 42.634 38.077h233.686c21.532 0 39.729-15.958 42.539-37.306l27.6-209.63h-370.119z" fill="#f9fbfc"/><g fill="#eaa895"><path d="m416.903 272.075c-1.701 0-3.08 1.379-3.08 3.08s1.379 3.08 3.08 3.08 3.08-1.379 3.08-3.08c.001-1.701-1.379-3.08-3.08-3.08z"/><circle cx="427.206" cy="284.71" r="3.08"/><path d="m416.903 291.932c-1.701 0-3.08 1.379-3.08 3.081 0 1.701 1.379 3.08 3.08 3.08s3.08-1.379 3.08-3.08c.001-1.702-1.379-3.081-3.08-3.081z"/><path d="m427.206 301.488c-1.701 0-3.08 1.379-3.08 3.08s1.379 3.08 3.08 3.08 3.08-1.379 3.08-3.08-1.379-3.08-3.08-3.08z"/><path d="m416.903 311.79c-1.701 0-3.08 1.379-3.08 3.08 0 1.702 1.379 3.081 3.08 3.081s3.08-1.379 3.08-3.081c.001-1.701-1.379-3.08-3.08-3.08z"/><path d="m427.206 321.346c-1.701 0-3.08 1.379-3.08 3.08s1.379 3.08 3.08 3.08 3.08-1.379 3.08-3.08-1.379-3.08-3.08-3.08z"/><path d="m416.903 331.648c-1.701 0-3.08 1.379-3.08 3.08 0 1.702 1.379 3.08 3.08 3.08s3.08-1.378 3.08-3.08c.001-1.701-1.379-3.08-3.08-3.08z"/><path d="m424.126 344.284c0 1.701 1.379 3.08 3.08 3.08.404 0 .788-.083 1.142-.224l.699-5.312c-.515-.387-1.148-.624-1.841-.624-1.701 0-3.08 1.379-3.08 3.08z"/><path d="m416.903 351.506c-1.701 0-3.08 1.379-3.08 3.08s1.379 3.08 3.08 3.08 3.08-1.379 3.08-3.08c.001-1.701-1.379-3.08-3.08-3.08z"/><path d="m416.903 371.364c-1.701 0-3.08 1.379-3.08 3.08s1.379 3.08 3.08 3.08 3.08-1.379 3.08-3.08c.001-1.701-1.379-3.08-3.08-3.08z"/><path d="m416.903 391.222c-1.701 0-3.08 1.379-3.08 3.08s1.379 3.08 3.08 3.08 3.08-1.379 3.08-3.08-1.379-3.08-3.08-3.08z"/><path d="m416.903 411.08c-1.701 0-3.08 1.379-3.08 3.08s1.379 3.08 3.08 3.08c.955 0 1.798-.444 2.363-1.127l.427-3.241c-.488-1.055-1.55-1.792-2.79-1.792z"/><path d="m397.045 272.075c-1.701 0-3.08 1.379-3.08 3.08s1.379 3.08 3.08 3.08 3.08-1.379 3.08-3.08c.001-1.701-1.378-3.08-3.08-3.08z"/><path d="m407.348 287.79c1.701 0 3.08-1.379 3.08-3.08s-1.379-3.08-3.08-3.08-3.08 1.379-3.08 3.08 1.379 3.08 3.08 3.08z"/><path d="m397.045 291.932c-1.701 0-3.08 1.379-3.08 3.081 0 1.701 1.379 3.08 3.08 3.08s3.08-1.379 3.08-3.08c.001-1.702-1.378-3.081-3.08-3.081z"/><path d="m407.348 307.648c1.701 0 3.08-1.379 3.08-3.08s-1.379-3.08-3.08-3.08-3.08 1.379-3.08 3.08 1.379 3.08 3.08 3.08z"/><path d="m397.045 311.79c-1.701 0-3.08 1.379-3.08 3.08 0 1.702 1.379 3.081 3.08 3.081s3.08-1.379 3.08-3.081c.001-1.701-1.378-3.08-3.08-3.08z"/><path d="m407.348 327.506c1.701 0 3.08-1.379 3.08-3.08s-1.379-3.08-3.08-3.08-3.08 1.379-3.08 3.08 1.379 3.08 3.08 3.08z"/><path d="m397.045 331.648c-1.701 0-3.08 1.379-3.08 3.08 0 1.702 1.379 3.08 3.08 3.08s3.08-1.378 3.08-3.08c.001-1.701-1.378-3.08-3.08-3.08z"/><path d="m407.348 347.364c1.701 0 3.08-1.379 3.08-3.08s-1.379-3.08-3.08-3.08-3.08 1.379-3.08 3.08 1.379 3.08 3.08 3.08z"/><path d="m397.045 351.506c-1.701 0-3.08 1.379-3.08 3.08s1.379 3.08 3.08 3.08 3.08-1.379 3.08-3.08c.001-1.701-1.378-3.08-3.08-3.08z"/><path d="m407.348 367.222c1.701 0 3.08-1.379 3.08-3.08s-1.379-3.08-3.08-3.08-3.08 1.379-3.08 3.08 1.379 3.08 3.08 3.08z"/><path d="m397.045 371.364c-1.701 0-3.08 1.379-3.08 3.08s1.379 3.08 3.08 3.08 3.08-1.379 3.08-3.08c.001-1.701-1.378-3.08-3.08-3.08z"/><path d="m407.348 387.08c1.701 0 3.08-1.379 3.08-3.08s-1.379-3.08-3.08-3.08-3.08 1.379-3.08 3.08 1.379 3.08 3.08 3.08z"/><path d="m397.045 391.222c-1.701 0-3.08 1.379-3.08 3.08s1.379 3.08 3.08 3.08 3.08-1.379 3.08-3.08-1.378-3.08-3.08-3.08z"/><path d="m407.348 406.938c1.701 0 3.08-1.379 3.08-3.08s-1.379-3.08-3.08-3.08-3.08 1.379-3.08 3.08 1.379 3.08 3.08 3.08z"/><path d="m397.045 411.08c-1.701 0-3.08 1.379-3.08 3.08s1.379 3.08 3.08 3.08 3.08-1.379 3.08-3.08c.001-1.701-1.378-3.08-3.08-3.08z"/><path d="m407.348 426.796c1.701 0 3.08-1.379 3.08-3.08 0-1.702-1.379-3.081-3.08-3.081s-3.08 1.379-3.08 3.081c0 1.701 1.379 3.08 3.08 3.08z"/><path d="m397.045 430.938c-1.701 0-3.08 1.379-3.08 3.08s1.379 3.08 3.08 3.08 3.08-1.379 3.08-3.08c.001-1.701-1.378-3.08-3.08-3.08z"/><path d="m407.348 446.654c1.701 0 3.08-1.379 3.08-3.081 0-1.701-1.379-3.08-3.08-3.08s-3.08 1.379-3.08 3.08c0 1.702 1.379 3.081 3.08 3.081z"/><path d="m397.045 450.796c-1.701 0-3.08 1.379-3.08 3.08s1.379 3.08 3.08 3.08 3.08-1.379 3.08-3.08c.001-1.701-1.378-3.08-3.08-3.08z"/><path d="m407.348 466.511c1.701 0 3.08-1.378 3.08-3.08 0-1.701-1.379-3.08-3.08-3.08s-3.08 1.379-3.08 3.08c0 1.702 1.379 3.08 3.08 3.08z"/><path d="m397.045 470.654c-1.701 0-3.08 1.379-3.08 3.08s1.379 3.08 3.08 3.08 3.08-1.379 3.08-3.08c.001-1.701-1.378-3.08-3.08-3.08z"/><path d="m397.045 490.512c-1.701 0-3.08 1.378-3.08 3.08 0 1.617 1.251 2.928 2.836 3.055 1.159-.939 2.264-1.944 3.319-3 0-.019.006-.036.006-.055 0-1.702-1.379-3.08-3.081-3.08z"/><path d="m377.188 272.075c-1.701 0-3.08 1.379-3.08 3.08s1.379 3.08 3.08 3.08 3.08-1.379 3.08-3.08-1.379-3.08-3.08-3.08z"/><path d="m387.49 281.63c-1.701 0-3.08 1.379-3.08 3.08s1.379 3.08 3.08 3.08 3.08-1.379 3.08-3.08-1.379-3.08-3.08-3.08z"/><path d="m377.188 291.932c-1.701 0-3.08 1.379-3.08 3.081 0 1.701 1.379 3.08 3.08 3.08s3.08-1.379 3.08-3.08c0-1.702-1.379-3.081-3.08-3.081z"/><path d="m387.49 301.488c-1.701 0-3.08 1.379-3.08 3.08s1.379 3.08 3.08 3.08 3.08-1.379 3.08-3.08-1.379-3.08-3.08-3.08z"/><path d="m377.188 311.79c-1.701 0-3.08 1.379-3.08 3.08 0 1.702 1.379 3.081 3.08 3.081s3.08-1.379 3.08-3.081c0-1.701-1.379-3.08-3.08-3.08z"/><path d="m387.49 321.346c-1.701 0-3.08 1.379-3.08 3.08s1.379 3.08 3.08 3.08 3.08-1.379 3.08-3.08-1.379-3.08-3.08-3.08z"/><path d="m377.188 331.648c-1.701 0-3.08 1.379-3.08 3.08 0 1.702 1.379 3.08 3.08 3.08s3.08-1.378 3.08-3.08c0-1.701-1.379-3.08-3.08-3.08z"/><path d="m387.49 341.204c-1.701 0-3.08 1.379-3.08 3.08s1.379 3.08 3.08 3.08 3.08-1.379 3.08-3.08-1.379-3.08-3.08-3.08z"/><path d="m377.188 351.506c-1.701 0-3.08 1.379-3.08 3.08s1.379 3.08 3.08 3.08 3.08-1.379 3.08-3.08-1.379-3.08-3.08-3.08z"/><path d="m387.49 361.062c-1.701 0-3.08 1.379-3.08 3.08s1.379 3.08 3.08 3.08 3.08-1.379 3.08-3.08-1.379-3.08-3.08-3.08z"/><path d="m377.188 371.364c-1.701 0-3.08 1.379-3.08 3.08s1.379 3.08 3.08 3.08 3.08-1.379 3.08-3.08-1.379-3.08-3.08-3.08z"/><path d="m387.49 380.92c-1.701 0-3.08 1.379-3.08 3.08s1.379 3.08 3.08 3.08 3.08-1.379 3.08-3.08-1.379-3.08-3.08-3.08z"/><path d="m377.188 391.222c-1.701 0-3.08 1.379-3.08 3.08s1.379 3.08 3.08 3.08 3.08-1.379 3.08-3.08-1.379-3.08-3.08-3.08z"/><path d="m387.49 400.778c-1.701 0-3.08 1.379-3.08 3.08s1.379 3.08 3.08 3.08 3.08-1.379 3.08-3.08-1.379-3.08-3.08-3.08z"/><path d="m377.188 411.08c-1.701 0-3.08 1.379-3.08 3.08s1.379 3.08 3.08 3.08 3.08-1.379 3.08-3.08-1.379-3.08-3.08-3.08z"/><path d="m387.49 420.635c-1.701 0-3.08 1.379-3.08 3.081 0 1.701 1.379 3.08 3.08 3.08s3.08-1.379 3.08-3.08c0-1.702-1.379-3.081-3.08-3.081z"/><path d="m377.188 430.938c-1.701 0-3.08 1.379-3.08 3.08s1.379 3.08 3.08 3.08 3.08-1.379 3.08-3.08-1.379-3.08-3.08-3.08z"/><path d="m387.49 440.493c-1.701 0-3.08 1.379-3.08 3.08 0 1.702 1.379 3.081 3.08 3.081s3.08-1.379 3.08-3.081c0-1.701-1.379-3.08-3.08-3.08z"/><path d="m377.188 450.796c-1.701 0-3.08 1.379-3.08 3.08s1.379 3.08 3.08 3.08 3.08-1.379 3.08-3.08-1.379-3.08-3.08-3.08z"/><path d="m387.49 460.351c-1.701 0-3.08 1.379-3.08 3.08 0 1.702 1.379 3.08 3.08 3.08s3.08-1.378 3.08-3.08c0-1.701-1.379-3.08-3.08-3.08z"/><path d="m377.188 470.654c-1.701 0-3.08 1.379-3.08 3.08s1.379 3.08 3.08 3.08 3.08-1.379 3.08-3.08-1.379-3.08-3.08-3.08z"/><path d="m387.49 480.209c-1.701 0-3.08 1.379-3.08 3.08s1.379 3.08 3.08 3.08 3.08-1.379 3.08-3.08-1.379-3.08-3.08-3.08z"/><path d="m377.188 490.512c-1.701 0-3.08 1.378-3.08 3.08 0 1.701 1.379 3.08 3.08 3.08s3.08-1.379 3.08-3.08c0-1.702-1.379-3.08-3.08-3.08z"/><path d="m357.33 278.236c1.701 0 3.08-1.379 3.08-3.08s-1.379-3.08-3.08-3.08-3.08 1.379-3.08 3.08 1.379 3.08 3.08 3.08z"/><path d="m367.632 281.63c-1.701 0-3.08 1.379-3.08 3.08s1.379 3.08 3.08 3.08 3.08-1.379 3.08-3.08c.001-1.701-1.378-3.08-3.08-3.08z"/><path d="m357.33 298.094c1.701 0 3.08-1.379 3.08-3.08 0-1.702-1.379-3.081-3.08-3.081s-3.08 1.379-3.08 3.081c0 1.701 1.379 3.08 3.08 3.08z"/><path d="m367.632 301.488c-1.701 0-3.08 1.379-3.08 3.08s1.379 3.08 3.08 3.08 3.08-1.379 3.08-3.08c.001-1.701-1.378-3.08-3.08-3.08z"/><path d="m367.632 341.204c-.52 0-1.002.141-1.432.369l-.654 4.965c.549.509 1.278.827 2.086.827 1.701 0 3.08-1.379 3.08-3.08.001-1.702-1.378-3.081-3.08-3.081z"/><path d="m367.632 361.062c-1.701 0-3.08 1.379-3.08 3.08s1.379 3.08 3.08 3.08 3.08-1.379 3.08-3.08c.001-1.701-1.378-3.08-3.08-3.08z"/><path d="m367.632 380.92c-1.701 0-3.08 1.379-3.08 3.08s1.379 3.08 3.08 3.08 3.08-1.379 3.08-3.08c.001-1.701-1.378-3.08-3.08-3.08z"/><path d="m367.632 400.778c-1.701 0-3.08 1.379-3.08 3.08s1.379 3.08 3.08 3.08 3.08-1.379 3.08-3.08c.001-1.701-1.378-3.08-3.08-3.08z"/><path d="m357.33 411.08c-.098 0-.189.02-.284.029l-.781 5.932c.333.123.689.2 1.065.2 1.701 0 3.08-1.379 3.08-3.08 0-1.702-1.379-3.081-3.08-3.081z"/><path d="m367.632 420.635c-1.701 0-3.08 1.379-3.08 3.081 0 1.701 1.379 3.08 3.08 3.08s3.08-1.379 3.08-3.08c.001-1.702-1.378-3.081-3.08-3.081z"/><path d="m357.33 430.938c-1.701 0-3.08 1.379-3.08 3.08s1.379 3.08 3.08 3.08 3.08-1.379 3.08-3.08-1.379-3.08-3.08-3.08z"/><path d="m367.632 440.493c-1.701 0-3.08 1.379-3.08 3.08 0 1.702 1.379 3.081 3.08 3.081s3.08-1.379 3.08-3.081c.001-1.701-1.378-3.08-3.08-3.08z"/><path d="m357.33 450.796c-1.701 0-3.08 1.379-3.08 3.08s1.379 3.08 3.08 3.08 3.08-1.379 3.08-3.08-1.379-3.08-3.08-3.08z"/><path d="m367.632 460.351c-1.701 0-3.08 1.379-3.08 3.08 0 1.702 1.379 3.08 3.08 3.08s3.08-1.378 3.08-3.08c.001-1.701-1.378-3.08-3.08-3.08z"/><path d="m357.33 470.654c-1.701 0-3.08 1.379-3.08 3.08s1.379 3.08 3.08 3.08 3.08-1.379 3.08-3.08-1.379-3.08-3.08-3.08z"/><path d="m367.632 480.209c-1.701 0-3.08 1.379-3.08 3.08s1.379 3.08 3.08 3.08 3.08-1.379 3.08-3.08c.001-1.701-1.378-3.08-3.08-3.08z"/><path d="m357.33 490.512c-1.701 0-3.08 1.378-3.08 3.08 0 1.701 1.379 3.08 3.08 3.08s3.08-1.379 3.08-3.08c0-1.702-1.379-3.08-3.08-3.08z"/><path d="m370.713 503.147c0-1.701-1.379-3.08-3.08-3.08s-3.08 1.379-3.08 3.08 1.379 3.08 3.08 3.08 3.08-1.379 3.08-3.08z"/><path d="m337.472 272.075c-1.701 0-3.08 1.379-3.08 3.08s1.379 3.08 3.08 3.08 3.08-1.379 3.08-3.08-1.379-3.08-3.08-3.08z"/><path d="m347.775 281.63c-1.701 0-3.08 1.379-3.08 3.08s1.379 3.08 3.08 3.08 3.08-1.379 3.08-3.08-1.379-3.08-3.08-3.08z"/><path d="m337.472 291.932c-1.701 0-3.08 1.379-3.08 3.081 0 1.701 1.379 3.08 3.08 3.08s3.08-1.379 3.08-3.08c0-1.702-1.379-3.081-3.08-3.081z"/><path d="m347.775 301.488c-1.701 0-3.08 1.379-3.08 3.08s1.379 3.08 3.08 3.08 3.08-1.379 3.08-3.08-1.379-3.08-3.08-3.08z"/><path d="m350.855 483.289c0-1.642-1.289-2.972-2.909-3.062l-.8 6.078c.203.042.414.065.629.065 1.701-.001 3.08-1.38 3.08-3.081z"/><path d="m347.775 506.227c1.701 0 3.08-1.379 3.08-3.08s-1.379-3.08-3.08-3.08c-1.128 0-2.105.613-2.641 1.518l-.314 2.384c.361 1.299 1.54 2.258 2.955 2.258z"/><path d="m317.614 272.075c-1.701 0-3.08 1.379-3.08 3.08s1.379 3.08 3.08 3.08 3.08-1.379 3.08-3.08-1.379-3.08-3.08-3.08z"/><path d="m327.917 281.63c-1.701 0-3.08 1.379-3.08 3.08s1.379 3.08 3.08 3.08 3.08-1.379 3.08-3.08-1.379-3.08-3.08-3.08z"/><path d="m317.614 291.932c-1.701 0-3.08 1.379-3.08 3.081 0 1.701 1.379 3.08 3.08 3.08s3.08-1.379 3.08-3.08c0-1.702-1.379-3.081-3.08-3.081z"/><path d="m327.917 301.488c-1.701 0-3.08 1.379-3.08 3.08s1.379 3.08 3.08 3.08 3.08-1.379 3.08-3.08-1.379-3.08-3.08-3.08z"/><path d="m297.756 272.075c-1.701 0-3.08 1.379-3.08 3.08s1.379 3.08 3.08 3.08 3.08-1.379 3.08-3.08-1.379-3.08-3.08-3.08z"/><path d="m308.059 281.63c-1.701 0-3.08 1.379-3.08 3.08s1.379 3.08 3.08 3.08 3.08-1.379 3.08-3.08-1.379-3.08-3.08-3.08z"/><path d="m297.756 291.932c-1.701 0-3.08 1.379-3.08 3.081 0 1.701 1.379 3.08 3.08 3.08s3.08-1.379 3.08-3.08c0-1.702-1.379-3.081-3.08-3.081z"/><path d="m308.059 301.488c-1.701 0-3.08 1.379-3.08 3.08s1.379 3.08 3.08 3.08 3.08-1.379 3.08-3.08-1.379-3.08-3.08-3.08z"/><path d="m277.898 272.075c-1.701 0-3.08 1.379-3.08 3.08s1.379 3.08 3.08 3.08 3.08-1.379 3.08-3.08-1.379-3.08-3.08-3.08z"/><path d="m288.201 281.63c-1.701 0-3.08 1.379-3.08 3.08s1.379 3.08 3.08 3.08 3.08-1.379 3.08-3.08-1.379-3.08-3.08-3.08z"/><path d="m277.898 291.932c-1.701 0-3.08 1.379-3.08 3.081 0 1.701 1.379 3.08 3.08 3.08s3.08-1.379 3.08-3.08c0-1.702-1.379-3.081-3.08-3.081z"/><path d="m288.201 301.488c-1.701 0-3.08 1.379-3.08 3.08s1.379 3.08 3.08 3.08 3.08-1.379 3.08-3.08-1.379-3.08-3.08-3.08z"/><path d="m258.04 272.075c-1.701 0-3.08 1.379-3.08 3.08s1.379 3.08 3.08 3.08 3.08-1.379 3.08-3.08-1.379-3.08-3.08-3.08z"/><ellipse cx="268.343" cy="284.71" rx="3.08" ry="3.08" transform="matrix(.039 -.999 .999 .039 -26.508 541.869)"/><path d="m258.04 291.932c-1.701 0-3.08 1.379-3.08 3.081 0 1.701 1.379 3.08 3.08 3.08s3.08-1.379 3.08-3.08c0-1.702-1.379-3.081-3.08-3.081z"/><path d="m268.343 301.488c-1.701 0-3.08 1.379-3.08 3.08s1.379 3.08 3.08 3.08 3.08-1.379 3.08-3.08-1.379-3.08-3.08-3.08z"/><path d="m238.182 272.075c-1.701 0-3.08 1.379-3.08 3.08s1.379 3.08 3.08 3.08 3.08-1.379 3.08-3.08-1.379-3.08-3.08-3.08z"/><ellipse cx="248.485" cy="284.71" rx="3.08" ry="3.08" transform="matrix(.017 -1 1 .017 -40.39 528.34)"/><path d="m238.182 291.932c-1.701 0-3.08 1.379-3.08 3.081 0 1.701 1.379 3.08 3.08 3.08s3.08-1.379 3.08-3.08c0-1.702-1.379-3.081-3.08-3.081z"/><path d="m248.485 301.488c-1.701 0-3.08 1.379-3.08 3.08s1.379 3.08 3.08 3.08 3.08-1.379 3.08-3.08-1.379-3.08-3.08-3.08z"/><path d="m218.324 272.075c-1.701 0-3.08 1.379-3.08 3.08s1.379 3.08 3.08 3.08 3.08-1.379 3.08-3.08c.001-1.701-1.378-3.08-3.08-3.08z"/><path d="m228.627 281.63c-1.701 0-3.08 1.379-3.08 3.08s1.379 3.08 3.08 3.08 3.08-1.379 3.08-3.08-1.379-3.08-3.08-3.08z"/><path d="m218.324 291.932c-1.701 0-3.08 1.379-3.08 3.081 0 1.701 1.379 3.08 3.08 3.08s3.08-1.379 3.08-3.08c.001-1.702-1.378-3.081-3.08-3.081z"/><path d="m228.627 301.488c-1.701 0-3.08 1.379-3.08 3.08s1.379 3.08 3.08 3.08 3.08-1.379 3.08-3.08-1.379-3.08-3.08-3.08z"/><path d="m198.466 272.075c-1.701 0-3.08 1.379-3.08 3.08s1.379 3.08 3.08 3.08 3.08-1.379 3.08-3.08c.001-1.701-1.378-3.08-3.08-3.08z"/><path d="m208.769 281.63c-1.701 0-3.08 1.379-3.08 3.08s1.379 3.08 3.08 3.08 3.08-1.379 3.08-3.08c.001-1.701-1.379-3.08-3.08-3.08z"/><path d="m198.466 291.932c-1.701 0-3.08 1.379-3.08 3.081 0 1.701 1.379 3.08 3.08 3.08s3.08-1.379 3.08-3.08c.001-1.702-1.378-3.081-3.08-3.081z"/><path d="m208.769 301.488c-1.701 0-3.08 1.379-3.08 3.08s1.379 3.08 3.08 3.08 3.08-1.379 3.08-3.08c.001-1.701-1.379-3.08-3.08-3.08z"/><path d="m178.609 272.075c-1.701 0-3.08 1.379-3.08 3.08s1.379 3.08 3.08 3.08 3.08-1.379 3.08-3.08-1.379-3.08-3.08-3.08z"/><path d="m188.911 281.63c-1.701 0-3.08 1.379-3.08 3.08s1.379 3.08 3.08 3.08 3.08-1.379 3.08-3.08c.001-1.701-1.378-3.08-3.08-3.08z"/><path d="m178.609 291.932c-1.701 0-3.08 1.379-3.08 3.081 0 1.701 1.379 3.08 3.08 3.08s3.08-1.379 3.08-3.08c0-1.702-1.379-3.081-3.08-3.081z"/><path d="m188.911 301.488c-1.701 0-3.08 1.379-3.08 3.08s1.379 3.08 3.08 3.08 3.08-1.379 3.08-3.08c.001-1.701-1.378-3.08-3.08-3.08z"/><path d="m158.751 272.075c-1.701 0-3.08 1.379-3.08 3.08s1.379 3.08 3.08 3.08 3.08-1.379 3.08-3.08-1.379-3.08-3.08-3.08z"/><path d="m169.053 281.63c-1.701 0-3.08 1.379-3.08 3.08s1.379 3.08 3.08 3.08 3.08-1.379 3.08-3.08c.001-1.701-1.378-3.08-3.08-3.08z"/><path d="m158.751 291.932c-1.701 0-3.08 1.379-3.08 3.081 0 1.701 1.379 3.08 3.08 3.08s3.08-1.379 3.08-3.08c0-1.702-1.379-3.081-3.08-3.081z"/><path d="m169.053 301.488c-1.701 0-3.08 1.379-3.08 3.08s1.379 3.08 3.08 3.08 3.08-1.379 3.08-3.08c.001-1.701-1.378-3.08-3.08-3.08z"/><path d="m138.893 272.075c-1.701 0-3.08 1.379-3.08 3.08s1.379 3.08 3.08 3.08 3.08-1.379 3.08-3.08-1.379-3.08-3.08-3.08z"/><path d="m149.196 281.63c-1.701 0-3.08 1.379-3.08 3.08s1.379 3.08 3.08 3.08 3.08-1.379 3.08-3.08-1.379-3.08-3.08-3.08z"/><path d="m138.893 291.932c-1.701 0-3.08 1.379-3.08 3.081 0 1.701 1.379 3.08 3.08 3.08s3.08-1.379 3.08-3.08c0-1.702-1.379-3.081-3.08-3.081z"/><path d="m149.196 301.488c-1.701 0-3.08 1.379-3.08 3.08s1.379 3.08 3.08 3.08 3.08-1.379 3.08-3.08-1.379-3.08-3.08-3.08z"/><path d="m119.035 272.075c-1.701 0-3.08 1.379-3.08 3.08s1.379 3.08 3.08 3.08 3.08-1.379 3.08-3.08-1.379-3.08-3.08-3.08z"/><path d="m129.338 281.63c-1.701 0-3.08 1.379-3.08 3.08s1.379 3.08 3.08 3.08 3.08-1.379 3.08-3.08-1.379-3.08-3.08-3.08z"/><path d="m119.035 291.932c-1.701 0-3.08 1.379-3.08 3.081 0 1.701 1.379 3.08 3.08 3.08s3.08-1.379 3.08-3.08c0-1.702-1.379-3.081-3.08-3.081z"/><path d="m129.338 301.488c-1.701 0-3.08 1.379-3.08 3.08s1.379 3.08 3.08 3.08 3.08-1.379 3.08-3.08-1.379-3.08-3.08-3.08z"/><path d="m99.177 272.075c-1.701 0-3.08 1.379-3.08 3.08s1.379 3.08 3.08 3.08 3.08-1.379 3.08-3.08-1.379-3.08-3.08-3.08z"/><circle cx="109.48" cy="284.71" r="3.08"/><path d="m99.177 291.932c-1.701 0-3.08 1.379-3.08 3.081 0 1.701 1.379 3.08 3.08 3.08s3.08-1.379 3.08-3.08c0-1.702-1.379-3.081-3.08-3.081z"/><path d="m109.48 301.488c-1.701 0-3.08 1.379-3.08 3.08s1.379 3.08 3.08 3.08 3.08-1.379 3.08-3.08-1.379-3.08-3.08-3.08z"/><path d="m79.319 272.075c-1.701 0-3.08 1.379-3.08 3.08s1.379 3.08 3.08 3.08 3.08-1.379 3.08-3.08-1.379-3.08-3.08-3.08z"/><path d="m89.622 281.63c-1.701 0-3.08 1.379-3.08 3.08s1.379 3.08 3.08 3.08 3.08-1.379 3.08-3.08-1.379-3.08-3.08-3.08z"/><path d="m79.319 298.094c1.701 0 3.08-1.379 3.08-3.08 0-1.702-1.379-3.081-3.08-3.081s-3.08 1.379-3.08 3.081c0 1.701 1.379 3.08 3.08 3.08z"/><path d="m89.622 301.488c-1.701 0-3.08 1.379-3.08 3.08s1.379 3.08 3.08 3.08 3.08-1.379 3.08-3.08-1.379-3.08-3.08-3.08z"/></g><path d="m434.961 198.14c1.311-5.722 2.007-11.649 2.007-17.725 0-36.915-25.443-68.414-61.255-80.854-8.101-53.955-58.983-95.54-120.584-95.54-61.23 0-111.884 41.082-120.447 94.563-37.369 11.694-64.229 43.902-64.229 81.831 0 6.116.708 12.082 2.036 17.839-19.879 1.424-35.526 16.523-35.526 34.952 0 19.371 17.281 35.074 38.597 35.074h359.138c21.317 0 38.597-15.703 38.597-35.074-.001-19.289-17.139-34.936-38.334-35.066z" fill="#e9c278"/><g fill="#31373d"><path d="m282.198 130.842h-14.814c-11.986 0-21.738 9.752-21.738 21.739v14.814c0 11.986 9.752 21.738 21.738 21.738h14.814c11.986 0 21.738-9.752 21.738-21.738v-14.814c0-11.987-9.752-21.739-21.738-21.739z"/><path d="m399.834 169.823-9.901-11.019c-3.881-4.319-9.211-6.868-15.009-7.177-5.797-.316-11.37 1.657-15.689 5.537l-11.019 9.901c-8.916 8.012-9.652 21.783-1.64 30.699l9.901 11.019c3.881 4.319 9.211 6.868 15.009 7.177.397.022.792.032 1.187.032 5.368 0 10.479-1.954 14.502-5.569l11.02-9.901c8.915-8.011 9.65-21.783 1.639-30.699z"/><path d="m222.957 199.116c-2.22 0-4.02-1.8-4.02-4.02 0-21.367-17.383-38.749-38.749-38.749s-38.749 17.382-38.749 38.749c0 2.22-1.8 4.02-4.02 4.02s-4.02-1.8-4.02-4.02c0-25.8 20.99-46.79 46.79-46.79s46.79 20.99 46.79 46.79c-.001 2.22-1.802 4.02-4.022 4.02z"/><path d="m295.626 109.133c-2.22 0-4.02-1.8-4.02-4.021 0-16.813-13.679-30.492-30.492-30.492s-30.492 13.679-30.492 30.492c0 2.22-1.8 4.021-4.021 4.021-2.22 0-4.02-1.8-4.02-4.021 0-21.247 17.286-38.533 38.533-38.533s38.533 17.286 38.533 38.533c-.001 2.221-1.801 4.021-4.021 4.021z"/><path d="m439.804 194.399c.786-4.621 1.183-9.308 1.183-13.985 0-18.768-6.237-36.77-18.036-52.061-11.005-14.261-26.06-25.21-43.65-31.772-2.699-15.523-8.884-30.279-18.035-43.404l-1.105-5.001c-2.049-9.278-9.782-15.85-18.729-16.897-1.127-.97-2.271-1.927-3.44-2.862-22.913-18.325-52.342-28.417-82.864-28.417-30.328 0-59.618 9.978-82.471 28.096-22.037 17.47-36.714 41.331-41.527 67.416-1.352.458-2.685.947-4.006 1.455-2.011-.616-4.145-.95-6.355-.95h-14.814c-11.986 0-21.738 9.752-21.738 21.738v10.93c-11.316 14.839-17.785 32.772-17.785 51.73 0 4.807.421 9.626 1.253 14.379-19.813 3.421-34.744 19.551-34.744 38.413 0 18.912 14.715 34.727 34.192 38.324l22.326 197.081c2.69 23.741 22.736 41.645 46.629 41.645h233.686c23.462 0 43.463-17.541 46.525-40.802l26.042-197.796c19.863-3.315 34.974-19.29 34.974-38.453 0-19.914-16.431-36.476-37.511-38.807zm-31.477 274.006c-2.537 19.276-19.112 33.811-38.553 33.811h-38.591l25.195-174.791c.317-2.198-1.208-4.235-3.405-4.552-2.205-.319-4.236 1.208-4.553 3.406l-25.361 175.937h-63.911v-175.365c0-2.22-1.8-4.021-4.021-4.021s-4.02 1.8-4.02 4.021v175.364h-65.559l-25.36-175.937c-.317-2.198-2.356-3.725-4.553-3.406-2.198.317-3.723 2.355-3.406 4.552l25.195 174.791h-41.337c-19.799 0-36.41-14.835-38.639-34.509l-22.135-195.411c.082.001.164.006.246.006h358.587zm26.37-204.145h-359.138c-19.065 0-34.576-13.93-34.576-31.054 0-16.073 13.965-29.665 31.793-30.942 1.172-.084 2.249-.676 2.947-1.622.698-.945.948-2.148.684-3.293-1.282-5.56-1.933-11.258-1.933-16.936 0-14.237 4.05-27.849 11.306-39.77 3.213 7.998 11.043 13.662 20.176 13.662h14.814c11.986 0 21.738-9.752 21.738-21.739v-14.814c0-6.018-2.46-11.472-6.425-15.412 1.35-.504 2.339-1.688 2.569-3.122 8.323-51.981 58.397-91.178 116.477-91.178 28.186 0 54.411 9.168 74.92 24.525l-10.266 2.268c-5.67 1.252-10.513 4.638-13.636 9.533s-4.154 10.713-2.901 16.383l3.196 14.465c1.252 5.669 4.638 10.511 9.533 13.635 3.537 2.257 7.554 3.421 11.65 3.421 1.573 0 3.159-.172 4.733-.519l14.465-3.195c5.669-1.254 10.512-4.639 13.636-9.534 1.299-2.037 2.214-4.237 2.775-6.517 4.137 8.663 7.045 17.935 8.504 27.651.222 1.478 1.245 2.711 2.657 3.201 35.023 12.167 58.554 43.133 58.554 77.056 0 5.648-.641 11.31-1.905 16.828-.272 1.19.01 2.437.767 3.394.757.956 1.908 1.516 3.127 1.524 18.934.116 34.338 14.043 34.338 31.046-.002 17.125-15.513 31.055-34.579 31.055z"/></g></g></svg>